<?xml version="1.0" encoding="utf-8"?>
<!-- Generator: Adobe Illustrator 16.0.0, SVG Export Plug-In . SVG Version: 6.00 Build 0)  -->
<!DOCTYPE svg PUBLIC "-//W3C//DTD SVG 1.1//EN" "http://www.w3.org/Graphics/SVG/1.1/DTD/svg11.dtd">
<svg version="1.1" id="Layer_1" xmlns="http://www.w3.org/2000/svg" xmlns:xlink="http://www.w3.org/1999/xlink" x="0px" y="0px"
	 width="625px" height="270.792px" viewBox="0 0 625 270.792" enable-background="new 0 0 625 270.792" xml:space="preserve">
<g>
	<g>
		<rect x="470.499" y="182.447" fill="#D0D2D3" width="49.361" height="63.77"/>
		<g>
			<rect x="475.928" y="189.133" fill="#E6E7E8" width="3.48" height="40.28"/>
			<rect x="487.285" y="189.133" fill="#E6E7E8" width="3.481" height="40.28"/>
			<g>
				<path fill="#E6E7E8" d="M491.749,190.023v-0.165h-0.248c-0.076-0.032-0.155-0.05-0.239-0.05c-0.08,0-0.16,0.018-0.235,0.05
					h-4.001c-0.075-0.032-0.156-0.05-0.237-0.05s-0.161,0.018-0.237,0.05h-0.25v0.165c-0.4,0.374-0.681,1.191-0.681,2.143
					c0,1.301,0.522,2.355,1.168,2.355c0.585,0,1.069-0.873,1.153-2.014h2.168c0.082,1.141,0.567,2.014,1.152,2.014
					c0.645,0,1.168-1.055,1.168-2.355C492.43,191.215,492.152,190.397,491.749,190.023z"/>
			</g>
			<g>
				<path fill="#E6E7E8" d="M480.393,190.023v-0.165h-0.25c-0.076-0.032-0.154-0.05-0.237-0.05c-0.081,0-0.161,0.018-0.237,0.05h-4
					c-0.077-0.032-0.156-0.05-0.238-0.05c-0.08,0-0.161,0.018-0.236,0.05h-0.25v0.165c-0.401,0.374-0.68,1.191-0.68,2.143
					c0,1.301,0.522,2.355,1.166,2.355c0.588,0,1.071-0.873,1.154-2.014h2.167c0.083,1.141,0.567,2.014,1.154,2.014
					c0.644,0,1.168-1.055,1.168-2.355C481.073,191.215,480.794,190.397,480.393,190.023z"/>
			</g>
			<rect x="499.42" y="189.133" fill="#E6E7E8" width="3.482" height="40.28"/>
			<rect x="510.777" y="189.133" fill="#E6E7E8" width="3.481" height="40.28"/>
			<g>
				<path fill="#E6E7E8" d="M515.241,190.023v-0.165h-0.247c-0.078-0.032-0.157-0.05-0.238-0.05c-0.082,0-0.161,0.018-0.238,0.05h-4
					c-0.076-0.032-0.156-0.05-0.236-0.05c-0.083,0-0.162,0.018-0.238,0.05h-0.25v0.165c-0.399,0.374-0.682,1.191-0.682,2.143
					c0,1.301,0.525,2.355,1.17,2.355c0.586,0,1.07-0.873,1.154-2.014h2.166c0.084,1.141,0.566,2.014,1.154,2.014
					c0.645,0,1.168-1.055,1.168-2.355C515.924,191.215,515.644,190.397,515.241,190.023z"/>
			</g>
			<g>
				<path fill="#E6E7E8" d="M503.885,190.023v-0.165h-0.25c-0.075-0.032-0.155-0.05-0.236-0.05c-0.082,0-0.162,0.018-0.237,0.05
					h-4.001c-0.076-0.032-0.156-0.05-0.238-0.05c-0.08,0-0.16,0.018-0.235,0.05h-0.249v0.165c-0.403,0.374-0.682,1.191-0.682,2.143
					c0,1.301,0.523,2.355,1.166,2.355c0.588,0,1.072-0.873,1.154-2.014h2.168c0.082,1.141,0.568,2.014,1.154,2.014
					c0.644,0,1.167-1.055,1.167-2.355C504.565,191.215,504.287,190.397,503.885,190.023z"/>
			</g>
		</g>
		<rect x="472.346" y="188.107" fill="#E6E7E8" width="47.515" height="3.964"/>
		<rect x="472.346" y="227.433" fill="#E6E7E8" width="47.515" height="3.963"/>
		<g>
			<rect x="480.893" y="232.757" fill="#BBBDBF" width="5.94" height="13.46"/>
			<rect x="493.133" y="232.757" fill="#BBBDBF" width="5.94" height="13.46"/>
			<rect x="504.559" y="232.757" fill="#BBBDBF" width="5.939" height="13.46"/>
			<rect x="472.346" y="232.757" fill="#BBBDBF" width="2.971" height="13.46"/>
			<rect x="515.924" y="232.757" fill="#BBBDBF" width="3.937" height="13.46"/>
		</g>
	</g>
	<g>
		<rect x="391.049" y="179.146" fill="#E6E7E8" width="81.297" height="67.07"/>
		<rect x="394.453" y="185.137" fill="#D0D2D3" width="77.893" height="3.369"/>
		<rect x="394.216" y="227.008" fill="#D0D2D3" width="78.13" height="19.209"/>
		<g>
			<rect x="397.739" y="192.469" fill="#BBBDBF" width="5.94" height="7.728"/>
			<rect x="397.739" y="206.222" fill="#BBBDBF" width="5.94" height="14.999"/>
			<rect x="412.721" y="192.469" fill="#BBBDBF" width="5.938" height="7.728"/>
			<rect x="412.721" y="206.222" fill="#BBBDBF" width="5.938" height="14.999"/>
			<rect x="428.676" y="192.469" fill="#BBBDBF" width="5.939" height="7.728"/>
			<rect x="428.676" y="206.222" fill="#BBBDBF" width="5.939" height="14.999"/>
			<rect x="444.726" y="192.469" fill="#BBBDBF" width="5.938" height="7.728"/>
			<rect x="444.726" y="206.222" fill="#BBBDBF" width="5.938" height="14.999"/>
			<rect x="461.088" y="192.469" fill="#BBBDBF" width="5.939" height="7.728"/>
			<rect x="461.088" y="206.222" fill="#BBBDBF" width="5.939" height="14.999"/>
			<rect x="397" y="231.22" fill="#BBBDBF" width="5.939" height="14.997"/>
			<rect x="411.98" y="231.22" fill="#BBBDBF" width="5.939" height="14.997"/>
			<rect x="427.936" y="231.22" fill="#BBBDBF" width="5.939" height="14.997"/>
			<rect x="443.985" y="231.22" fill="#BBBDBF" width="5.939" height="14.997"/>
			<rect x="460.35" y="231.22" fill="#BBBDBF" width="5.939" height="14.997"/>
		</g>
	</g>
	<g>
		<rect x="519.86" y="173.753" fill="#F1F1F2" width="99.908" height="72.464"/>
		<rect x="519.86" y="179.703" fill="#D0D2D3" width="99.908" height="3.506"/>
		<g>
			<rect x="535.275" y="179.703" fill="#D0D2D3" width="3.156" height="41.676"/>
			<rect x="542.7" y="179.703" fill="#D0D2D3" width="3.157" height="41.676"/>
			<g>
				<path fill="#D0D2D3" d="M546.748,180.625v-0.172h-0.225c-0.069-0.033-0.142-0.052-0.216-0.052c-0.073,0-0.146,0.019-0.216,0.052
					h-3.626c-0.068-0.033-0.142-0.052-0.216-0.052s-0.145,0.019-0.215,0.052h-0.227v0.172c-0.363,0.386-0.617,1.231-0.617,2.217
					c0,1.345,0.474,2.438,1.059,2.438c0.531,0,0.972-0.904,1.047-2.084h1.966c0.075,1.18,0.514,2.084,1.045,2.084
					c0.585,0,1.06-1.093,1.06-2.438C547.367,181.856,547.113,181.011,546.748,180.625z"/>
			</g>
			<g>
				<path fill="#D0D2D3" d="M539.322,180.625v-0.172h-0.226c-0.069-0.033-0.141-0.052-0.215-0.052c-0.073,0-0.146,0.019-0.214,0.052
					h-3.628c-0.071-0.033-0.142-0.052-0.218-0.052c-0.072,0-0.145,0.019-0.214,0.052h-0.226v0.172
					c-0.366,0.386-0.617,1.231-0.617,2.217c0,1.345,0.475,2.438,1.057,2.438c0.533,0,0.974-0.904,1.048-2.084h1.966
					c0.074,1.18,0.514,2.084,1.046,2.084c0.583,0,1.058-1.093,1.058-2.438C539.939,181.856,539.689,181.011,539.322,180.625z"/>
			</g>
			<rect x="549.924" y="179.703" fill="#D0D2D3" width="3.157" height="41.676"/>
			<rect x="557.35" y="179.703" fill="#D0D2D3" width="3.157" height="41.676"/>
			<g>
				<path fill="#D0D2D3" d="M561.398,180.625v-0.172h-0.225c-0.07-0.033-0.143-0.052-0.215-0.052c-0.074,0-0.148,0.019-0.216,0.052
					h-3.628c-0.068-0.033-0.141-0.052-0.215-0.052s-0.146,0.019-0.215,0.052h-0.227v0.172c-0.363,0.386-0.619,1.231-0.619,2.217
					c0,1.345,0.477,2.438,1.061,2.438c0.531,0,0.971-0.904,1.046-2.084h1.967c0.075,1.18,0.513,2.084,1.046,2.084
					c0.583,0,1.057-1.093,1.057-2.438C562.016,181.856,561.764,181.011,561.398,180.625z"/>
			</g>
			<g>
				<path fill="#D0D2D3" d="M553.973,180.625v-0.172h-0.227c-0.068-0.033-0.141-0.052-0.215-0.052c-0.073,0-0.146,0.019-0.214,0.052
					h-3.628c-0.07-0.033-0.142-0.052-0.217-0.052c-0.072,0-0.146,0.019-0.215,0.052h-0.226v0.172
					c-0.365,0.386-0.616,1.231-0.616,2.217c0,1.345,0.474,2.438,1.057,2.438c0.533,0,0.972-0.904,1.047-2.084h1.967
					c0.073,1.18,0.514,2.084,1.045,2.084c0.583,0,1.059-1.093,1.059-2.438C554.59,181.856,554.338,181.011,553.973,180.625z"/>
			</g>
			<rect x="564.125" y="179.703" fill="#D0D2D3" width="3.16" height="41.676"/>
			<rect x="571.555" y="179.703" fill="#D0D2D3" width="3.156" height="41.676"/>
			<g>
				<path fill="#D0D2D3" d="M575.602,180.625v-0.172h-0.226c-0.069-0.033-0.142-0.052-0.216-0.052c-0.072,0-0.145,0.019-0.215,0.052
					h-3.627c-0.068-0.033-0.141-0.052-0.217-0.052c-0.073,0-0.145,0.019-0.215,0.052h-0.226v0.172
					c-0.363,0.386-0.618,1.231-0.618,2.217c0,1.345,0.477,2.438,1.059,2.438c0.533,0,0.973-0.904,1.048-2.084h1.965
					c0.077,1.18,0.514,2.084,1.046,2.084c0.586,0,1.059-1.093,1.059-2.438C576.219,181.856,575.966,181.011,575.602,180.625z"/>
			</g>
			<g>
				<path fill="#D0D2D3" d="M568.176,180.625v-0.172h-0.227c-0.069-0.033-0.141-0.052-0.214-0.052c-0.075,0-0.147,0.019-0.216,0.052
					h-3.628c-0.069-0.033-0.142-0.052-0.216-0.052s-0.146,0.019-0.215,0.052h-0.227v0.172c-0.364,0.386-0.617,1.231-0.617,2.217
					c0,1.345,0.476,2.438,1.059,2.438c0.533,0,0.971-0.904,1.047-2.084h1.965c0.075,1.18,0.516,2.084,1.048,2.084
					c0.583,0,1.059-1.093,1.059-2.438C568.794,181.856,568.539,181.011,568.176,180.625z"/>
			</g>
			<rect x="578.827" y="179.703" fill="#D0D2D3" width="3.157" height="41.676"/>
			<rect x="586.254" y="179.703" fill="#D0D2D3" width="3.157" height="41.676"/>
			<g>
				<path fill="#D0D2D3" d="M590.302,180.625v-0.172h-0.226c-0.068-0.033-0.141-0.052-0.215-0.052s-0.146,0.019-0.215,0.052h-3.627
					c-0.07-0.033-0.142-0.052-0.215-0.052c-0.075,0-0.146,0.019-0.216,0.052h-0.227v0.172c-0.364,0.386-0.618,1.231-0.618,2.217
					c0,1.345,0.475,2.438,1.061,2.438c0.531,0,0.97-0.904,1.046-2.084h1.966c0.074,1.18,0.514,2.084,1.045,2.084
					c0.585,0,1.059-1.093,1.059-2.438C590.92,181.856,590.668,181.011,590.302,180.625z"/>
			</g>
			<g>
				<path fill="#D0D2D3" d="M582.875,180.625v-0.172h-0.225c-0.07-0.033-0.142-0.052-0.215-0.052s-0.146,0.019-0.215,0.052h-3.627
					c-0.07-0.033-0.143-0.052-0.218-0.052c-0.073,0-0.144,0.019-0.214,0.052h-0.227v0.172c-0.364,0.386-0.616,1.231-0.616,2.217
					c0,1.345,0.474,2.438,1.057,2.438c0.533,0,0.973-0.904,1.047-2.084h1.966c0.074,1.18,0.516,2.084,1.047,2.084
					c0.583,0,1.059-1.093,1.059-2.438C583.494,181.856,583.24,181.011,582.875,180.625z"/>
			</g>
			<rect x="593.281" y="179.703" fill="#D0D2D3" width="3.156" height="41.676"/>
			<rect x="600.705" y="179.703" fill="#D0D2D3" width="3.158" height="41.676"/>
			<g>
				<path fill="#D0D2D3" d="M604.752,180.625v-0.172h-0.223c-0.07-0.033-0.143-0.052-0.216-0.052c-0.074,0-0.146,0.019-0.218,0.052
					h-3.625c-0.068-0.033-0.141-0.052-0.215-0.052s-0.146,0.019-0.215,0.052h-0.227v0.172c-0.363,0.386-0.618,1.231-0.618,2.217
					c0,1.345,0.475,2.438,1.06,2.438c0.531,0,0.97-0.904,1.045-2.084h1.967c0.075,1.18,0.514,2.084,1.046,2.084
					c0.585,0,1.06-1.093,1.06-2.438C605.373,181.856,605.12,181.011,604.752,180.625z"/>
			</g>
			<g>
				<path fill="#D0D2D3" d="M597.328,180.625v-0.172h-0.226c-0.07-0.033-0.142-0.052-0.216-0.052c-0.072,0-0.146,0.019-0.215,0.052
					h-3.627c-0.069-0.033-0.142-0.052-0.217-0.052c-0.072,0-0.146,0.019-0.215,0.052h-0.225v0.172
					c-0.365,0.386-0.619,1.231-0.619,2.217c0,1.345,0.476,2.438,1.059,2.438c0.532,0,0.973-0.904,1.048-2.084h1.966
					c0.072,1.18,0.514,2.084,1.045,2.084c0.583,0,1.059-1.093,1.059-2.438C597.945,181.856,597.693,181.011,597.328,180.625z"/>
			</g>
		</g>
		<rect x="519.86" y="220.22" fill="#D0D2D3" width="99.908" height="4.947"/>
		<g>
			<path fill="#BBBDBF" d="M557.436,231.567c0-1.618-1.83-2.931-4.09-2.931c-2.258,0-4.088,1.312-4.088,2.931v14.649h8.178V231.567z
				"/>
			<path fill="#BBBDBF" d="M540.328,231.567c0-1.618-1.832-2.931-4.088-2.931c-2.261,0-4.09,1.312-4.09,2.931v14.649h8.178V231.567z
				"/>
			<path fill="#BBBDBF" d="M607.938,231.567c0-1.618-1.832-2.931-4.086-2.931c-2.262,0-4.092,1.312-4.092,2.931v14.649h8.178
				V231.567z"/>
			<path fill="#BBBDBF" d="M590.943,231.568c0-1.618-1.83-2.932-4.088-2.932c-2.26,0-4.089,1.313-4.089,2.932v14.648h8.177V231.568z
				"/>
			<path fill="#BBBDBF" d="M573.59,231.568c0-1.618-1.828-2.931-4.088-2.931c-2.258,0-4.089,1.312-4.089,2.931v14.648h8.177V231.568
				z"/>
			<rect x="524.627" y="186.822" fill="#BBBDBF" width="5.939" height="7.726"/>
			<rect x="524.627" y="200.574" fill="#BBBDBF" width="5.939" height="14.999"/>
			<rect x="608.089" y="186.822" fill="#BBBDBF" width="5.939" height="7.726"/>
			<rect x="608.089" y="200.574" fill="#BBBDBF" width="5.939" height="14.999"/>
		</g>
	</g>
	<rect x="394.216" y="246.217" fill="#BBBDBF" width="225.553" height="24.972"/>
	<g>
		<rect x="420.766" y="160.533" fill="#E6E7E8" width="25.031" height="20.173"/>
		<path fill="#BBBDBF" d="M448.307,160.32c0,1.135-0.918,2.055-2.053,2.055h-25.947c-1.135,0-2.053-0.92-2.053-2.055l0,0
			c0-1.132,0.918-2.051,2.053-2.051h25.947C447.389,158.27,448.307,159.188,448.307,160.32L448.307,160.32z"/>
		<rect x="431.203" y="164.357" fill="#BBBDBF" width="4.156" height="12.524"/>
		<rect x="426.372" y="164.357" fill="#BBBDBF" width="3.431" height="12.524"/>
		<rect x="422.082" y="164.357" fill="#BBBDBF" width="2.375" height="12.524"/>
		<rect x="436.977" y="164.357" fill="#BBBDBF" width="3.431" height="12.524"/>
		<rect x="442.322" y="164.357" fill="#BBBDBF" width="2.375" height="12.524"/>
	</g>
	<g>
		<rect x="113.215" y="182.051" fill="#D0D2D3" width="49.362" height="63.771"/>
		<g>
			<rect x="153.667" y="188.736" fill="#E6E7E8" width="3.482" height="40.28"/>
			<rect x="142.31" y="188.736" fill="#E6E7E8" width="3.482" height="40.28"/>
			<g>
				<path fill="#E6E7E8" d="M141.327,189.628v-0.167h0.248c0.078-0.031,0.157-0.049,0.239-0.049c0.082,0,0.161,0.018,0.237,0.049h4
					c0.077-0.031,0.157-0.049,0.238-0.049c0.082,0,0.162,0.018,0.237,0.049h0.25v0.167c0.4,0.372,0.681,1.19,0.681,2.142
					c0,1.301-0.523,2.355-1.168,2.355c-0.586,0-1.07-0.873-1.154-2.013h-2.167c-0.083,1.14-0.567,2.013-1.153,2.013
					c-0.645,0-1.167-1.055-1.167-2.355C140.646,190.818,140.925,190,141.327,189.628z"/>
			</g>
			<g>
				<path fill="#E6E7E8" d="M152.684,189.628v-0.167h0.249c0.078-0.031,0.157-0.049,0.238-0.049c0.082,0,0.161,0.018,0.237,0.049
					h4.001c0.077-0.031,0.156-0.049,0.238-0.049c0.081,0,0.161,0.018,0.237,0.049h0.249v0.167c0.402,0.372,0.68,1.19,0.68,2.142
					c0,1.301-0.522,2.355-1.166,2.355c-0.587,0-1.072-0.873-1.155-2.013h-2.167c-0.082,1.14-0.568,2.013-1.154,2.013
					c-0.643,0-1.167-1.055-1.167-2.355C152.003,190.818,152.282,190,152.684,189.628z"/>
			</g>
			<rect x="130.174" y="188.736" fill="#E6E7E8" width="3.482" height="40.28"/>
			<rect x="118.817" y="188.736" fill="#E6E7E8" width="3.482" height="40.28"/>
			<g>
				<path fill="#E6E7E8" d="M117.834,189.628v-0.167h0.249c0.077-0.031,0.156-0.049,0.238-0.049c0.081,0,0.161,0.018,0.237,0.049h4
					c0.076-0.031,0.156-0.049,0.238-0.049c0.082,0,0.162,0.018,0.237,0.049h0.25v0.167c0.4,0.372,0.681,1.19,0.681,2.142
					c0,1.301-0.523,2.355-1.168,2.355c-0.587,0-1.071-0.873-1.154-2.013h-2.168c-0.083,1.14-0.566,2.013-1.152,2.013
					c-0.646,0-1.168-1.055-1.168-2.355C117.153,190.818,117.433,190,117.834,189.628z"/>
			</g>
			<g>
				<path fill="#E6E7E8" d="M129.191,189.628v-0.167h0.25c0.076-0.031,0.155-0.049,0.237-0.049c0.082,0,0.161,0.018,0.237,0.049h4
					c0.076-0.031,0.156-0.049,0.238-0.049c0.08,0,0.161,0.018,0.236,0.049h0.249v0.167c0.402,0.372,0.681,1.19,0.681,2.142
					c0,1.301-0.522,2.355-1.166,2.355c-0.588,0-1.072-0.873-1.155-2.013h-2.167c-0.082,1.14-0.567,2.013-1.153,2.013
					c-0.644,0-1.168-1.055-1.168-2.355C128.51,190.818,128.79,190,129.191,189.628z"/>
			</g>
		</g>
		<rect x="113.215" y="187.711" fill="#E6E7E8" width="47.514" height="3.963"/>
		<rect x="113.215" y="227.035" fill="#E6E7E8" width="47.514" height="3.964"/>
		<g>
			<rect x="146.244" y="232.361" fill="#BBBDBF" width="5.94" height="13.46"/>
			<rect x="134.003" y="232.361" fill="#BBBDBF" width="5.938" height="13.46"/>
			<rect x="122.579" y="232.361" fill="#BBBDBF" width="5.939" height="13.46"/>
			<rect x="157.759" y="232.361" fill="#BBBDBF" width="2.97" height="13.46"/>
			<rect x="113.215" y="232.361" fill="#BBBDBF" width="3.938" height="13.46"/>
		</g>
	</g>
	<g>
		<rect x="160.729" y="178.749" fill="#E6E7E8" width="81.299" height="67.072"/>
		<rect x="160.729" y="184.741" fill="#D0D2D3" width="77.895" height="3.368"/>
		<rect x="160.729" y="226.611" fill="#D0D2D3" width="78.132" height="19.21"/>
		<g>
			<rect x="229.398" y="192.072" fill="#BBBDBF" width="5.938" height="7.727"/>
			<rect x="229.398" y="205.825" fill="#BBBDBF" width="5.938" height="14.998"/>
			<rect x="214.417" y="192.072" fill="#BBBDBF" width="5.939" height="7.727"/>
			<rect x="214.417" y="205.825" fill="#BBBDBF" width="5.939" height="14.998"/>
			<rect x="198.461" y="192.072" fill="#BBBDBF" width="5.939" height="7.727"/>
			<rect x="198.461" y="205.825" fill="#BBBDBF" width="5.939" height="14.998"/>
			<rect x="182.413" y="192.072" fill="#BBBDBF" width="5.939" height="7.727"/>
			<rect x="182.413" y="205.825" fill="#BBBDBF" width="5.939" height="14.998"/>
			<rect x="166.048" y="192.072" fill="#BBBDBF" width="5.939" height="7.727"/>
			<rect x="166.048" y="205.825" fill="#BBBDBF" width="5.939" height="14.998"/>
			<rect x="230.137" y="230.822" fill="#BBBDBF" width="5.939" height="14.999"/>
			<rect x="215.156" y="230.822" fill="#BBBDBF" width="5.94" height="14.999"/>
			<rect x="199.201" y="230.822" fill="#BBBDBF" width="5.939" height="14.999"/>
			<rect x="183.151" y="230.822" fill="#BBBDBF" width="5.939" height="14.999"/>
			<rect x="166.788" y="230.822" fill="#BBBDBF" width="5.938" height="14.999"/>
		</g>
	</g>
	<g>
		<rect x="13.308" y="173.355" fill="#F1F1F2" width="99.907" height="72.466"/>
		<rect x="13.308" y="179.306" fill="#D0D2D3" width="99.907" height="3.507"/>
		<g>
			<rect x="94.644" y="179.306" fill="#D0D2D3" width="3.157" height="41.678"/>
			<rect x="87.218" y="179.306" fill="#D0D2D3" width="3.157" height="41.678"/>
			<g>
				<path fill="#D0D2D3" d="M86.327,180.229v-0.173h0.226c0.07-0.032,0.141-0.052,0.215-0.052s0.147,0.02,0.216,0.052h3.626
					c0.069-0.032,0.142-0.052,0.215-0.052c0.074,0,0.146,0.02,0.215,0.052h0.227v0.173c0.363,0.385,0.618,1.23,0.618,2.215
					c0,1.346-0.475,2.438-1.059,2.438c-0.531,0-0.971-0.903-1.046-2.083h-1.965c-0.076,1.18-0.514,2.083-1.046,2.083
					c-0.584,0-1.059-1.092-1.059-2.438C85.709,181.459,85.962,180.613,86.327,180.229z"/>
			</g>
			<g>
				<path fill="#D0D2D3" d="M93.753,180.229v-0.173h0.226c0.07-0.032,0.141-0.052,0.215-0.052c0.073,0,0.146,0.02,0.215,0.052h3.627
					c0.069-0.032,0.142-0.052,0.217-0.052c0.073,0,0.146,0.02,0.214,0.052h0.226v0.173c0.365,0.385,0.617,1.23,0.617,2.215
					c0,1.346-0.474,2.438-1.057,2.438c-0.533,0-0.972-0.903-1.047-2.083h-1.965c-0.075,1.18-0.514,2.083-1.046,2.083
					c-0.583,0-1.059-1.092-1.059-2.438C93.135,181.459,93.388,180.613,93.753,180.229z"/>
			</g>
			<rect x="79.995" y="179.306" fill="#D0D2D3" width="3.158" height="41.678"/>
			<rect x="72.568" y="179.306" fill="#D0D2D3" width="3.157" height="41.678"/>
			<g>
				<path fill="#D0D2D3" d="M71.678,180.229v-0.173h0.225c0.07-0.032,0.141-0.052,0.216-0.052c0.073,0,0.146,0.02,0.216,0.052h3.627
					c0.069-0.032,0.141-0.052,0.214-0.052c0.074,0,0.146,0.02,0.216,0.052h0.226v0.173c0.363,0.385,0.617,1.23,0.617,2.215
					c0,1.346-0.474,2.438-1.059,2.438c-0.531,0-0.97-0.903-1.046-2.083h-1.966c-0.075,1.18-0.513,2.083-1.045,2.083
					c-0.585,0-1.06-1.092-1.06-2.438C71.059,181.459,71.312,180.613,71.678,180.229z"/>
			</g>
			<g>
				<path fill="#D0D2D3" d="M79.104,180.229v-0.173h0.225c0.07-0.032,0.141-0.052,0.216-0.052c0.074,0,0.146,0.02,0.215,0.052h3.627
					c0.07-0.032,0.142-0.052,0.217-0.052c0.072,0,0.146,0.02,0.214,0.052h0.226v0.173c0.364,0.385,0.617,1.23,0.617,2.215
					c0,1.346-0.474,2.438-1.058,2.438c-0.533,0-0.972-0.903-1.047-2.083h-1.965c-0.075,1.18-0.514,2.083-1.046,2.083
					c-0.583,0-1.06-1.092-1.06-2.438C78.485,181.459,78.739,180.613,79.104,180.229z"/>
			</g>
			<rect x="65.792" y="179.306" fill="#D0D2D3" width="3.157" height="41.678"/>
			<rect x="58.365" y="179.306" fill="#D0D2D3" width="3.158" height="41.678"/>
			<g>
				<path fill="#D0D2D3" d="M57.474,180.229v-0.173h0.225c0.071-0.032,0.142-0.052,0.216-0.052c0.073,0,0.146,0.02,0.216,0.052
					h3.627c0.068-0.032,0.141-0.052,0.214-0.052c0.075,0,0.147,0.02,0.215,0.052h0.227v0.173c0.364,0.385,0.618,1.23,0.618,2.215
					c0,1.346-0.475,2.438-1.06,2.438c-0.531,0-0.97-0.903-1.046-2.083h-1.965c-0.076,1.18-0.514,2.083-1.046,2.083
					c-0.584,0-1.059-1.092-1.059-2.438C56.857,181.459,57.11,180.613,57.474,180.229z"/>
			</g>
			<g>
				<path fill="#D0D2D3" d="M64.901,180.229v-0.173h0.226c0.069-0.032,0.141-0.052,0.215-0.052c0.073,0,0.146,0.02,0.214,0.052
					h3.628c0.069-0.032,0.142-0.052,0.216-0.052c0.073,0,0.146,0.02,0.214,0.052h0.226v0.173c0.365,0.385,0.617,1.23,0.617,2.215
					c0,1.346-0.474,2.438-1.057,2.438c-0.533,0-0.972-0.903-1.047-2.083h-1.965c-0.074,1.18-0.515,2.083-1.046,2.083
					c-0.583,0-1.059-1.092-1.059-2.438C64.283,181.459,64.536,180.613,64.901,180.229z"/>
			</g>
			<rect x="51.091" y="179.306" fill="#D0D2D3" width="3.157" height="41.678"/>
			<rect x="43.665" y="179.306" fill="#D0D2D3" width="3.158" height="41.678"/>
			<g>
				<path fill="#D0D2D3" d="M42.773,180.229v-0.173h0.225c0.071-0.032,0.142-0.052,0.216-0.052c0.073,0,0.147,0.02,0.216,0.052
					h3.626c0.069-0.032,0.141-0.052,0.215-0.052s0.146,0.02,0.215,0.052h0.227v0.173c0.363,0.385,0.618,1.23,0.618,2.215
					c0,1.346-0.475,2.438-1.059,2.438c-0.531,0-0.971-0.903-1.046-2.083H44.26c-0.076,1.18-0.513,2.083-1.046,2.083
					c-0.584,0-1.058-1.092-1.058-2.438C42.156,181.459,42.409,180.613,42.773,180.229z"/>
			</g>
			<g>
				<path fill="#D0D2D3" d="M50.2,180.229v-0.173h0.227c0.069-0.032,0.14-0.052,0.215-0.052c0.073,0,0.146,0.02,0.215,0.052h3.627
					c0.069-0.032,0.141-0.052,0.216-0.052c0.072,0,0.146,0.02,0.214,0.052h0.226v0.173c0.366,0.385,0.617,1.23,0.617,2.215
					c0,1.346-0.474,2.438-1.057,2.438c-0.533,0-0.972-0.903-1.048-2.083h-1.965c-0.074,1.18-0.514,2.083-1.046,2.083
					c-0.583,0-1.059-1.092-1.059-2.438C49.582,181.459,49.835,180.613,50.2,180.229z"/>
			</g>
			<rect x="36.639" y="179.306" fill="#D0D2D3" width="3.158" height="41.678"/>
			<rect x="29.213" y="179.306" fill="#D0D2D3" width="3.157" height="41.678"/>
			<g>
				<path fill="#D0D2D3" d="M28.322,180.229v-0.173h0.225c0.07-0.032,0.142-0.052,0.216-0.052c0.073,0,0.146,0.02,0.216,0.052h3.627
					c0.069-0.032,0.142-0.052,0.214-0.052c0.075,0,0.147,0.02,0.216,0.052h0.227v0.173c0.363,0.385,0.618,1.23,0.618,2.215
					c0,1.346-0.475,2.438-1.06,2.438c-0.53,0-0.97-0.903-1.046-2.083h-1.965c-0.075,1.18-0.513,2.083-1.046,2.083
					c-0.584,0-1.059-1.092-1.059-2.438C27.704,181.459,27.958,180.613,28.322,180.229z"/>
			</g>
			<g>
				<path fill="#D0D2D3" d="M35.749,180.229v-0.173h0.226c0.069-0.032,0.141-0.052,0.215-0.052c0.073,0,0.146,0.02,0.215,0.052
					h3.627c0.069-0.032,0.141-0.052,0.216-0.052c0.073,0,0.146,0.02,0.214,0.052h0.226v0.173c0.365,0.385,0.617,1.23,0.617,2.215
					c0,1.346-0.474,2.438-1.057,2.438c-0.533,0-0.972-0.903-1.046-2.083h-1.966c-0.074,1.18-0.514,2.083-1.046,2.083
					c-0.584,0-1.059-1.092-1.059-2.438C35.131,181.459,35.383,180.613,35.749,180.229z"/>
			</g>
		</g>
		<rect x="13.308" y="219.823" fill="#D0D2D3" width="99.907" height="4.947"/>
		<g>
			<path fill="#BBBDBF" d="M75.641,231.17c0-1.617,1.83-2.93,4.087-2.93c2.26,0,4.091,1.312,4.091,2.93v14.651h-8.178V231.17z"/>
			<path fill="#BBBDBF" d="M92.749,231.17c0-1.617,1.831-2.93,4.087-2.93c2.26,0,4.09,1.312,4.09,2.93v14.651h-8.178V231.17z"/>
			<path fill="#BBBDBF" d="M25.139,231.17c0-1.617,1.831-2.93,4.087-2.93c2.26,0,4.09,1.312,4.09,2.93v14.651h-8.178V231.17z"/>
			<path fill="#BBBDBF" d="M42.132,231.172c0-1.618,1.831-2.932,4.087-2.932c2.26,0,4.091,1.313,4.091,2.932v14.649h-8.178V231.172z
				"/>
			<path fill="#BBBDBF" d="M59.485,231.172c0-1.618,1.831-2.931,4.088-2.931c2.259,0,4.09,1.312,4.09,2.931v14.649h-8.179V231.172z"
				/>
			<rect x="102.511" y="186.426" fill="#BBBDBF" width="5.939" height="7.727"/>
			<rect x="102.511" y="200.178" fill="#BBBDBF" width="5.939" height="14.999"/>
			<rect x="19.049" y="186.426" fill="#BBBDBF" width="5.94" height="7.727"/>
			<rect x="19.049" y="200.178" fill="#BBBDBF" width="5.94" height="14.999"/>
		</g>
	</g>
	<rect x="13.308" y="245.821" fill="#BBBDBF" width="225.553" height="24.971"/>
	<g>
		<rect x="187.28" y="160.137" fill="#E6E7E8" width="25.032" height="20.172"/>
		<path fill="#BBBDBF" d="M184.769,159.926c0,1.133,0.918,2.053,2.052,2.053h25.948c1.134,0,2.053-0.92,2.053-2.053l0,0
			c0-1.134-0.919-2.053-2.053-2.053h-25.948C185.687,157.873,184.769,158.792,184.769,159.926L184.769,159.926z"/>
		<rect x="197.717" y="163.961" fill="#BBBDBF" width="4.156" height="12.524"/>
		<rect x="203.275" y="163.961" fill="#BBBDBF" width="3.429" height="12.524"/>
		<rect x="208.619" y="163.961" fill="#BBBDBF" width="2.375" height="12.524"/>
		<rect x="192.669" y="163.961" fill="#BBBDBF" width="3.43" height="12.524"/>
		<rect x="188.379" y="163.961" fill="#BBBDBF" width="2.375" height="12.524"/>
	</g>
	<g>
		<rect x="238.188" y="173.731" fill="#F1F1F2" width="156.266" height="51.436"/>
		<g>
			<rect x="276.76" y="181.718" fill="#D0D2D3" width="3.481" height="43.449"/>
			<rect x="283.425" y="181.718" fill="#D0D2D3" width="3.48" height="43.449"/>
			<rect x="293.504" y="181.718" fill="#D0D2D3" width="3.48" height="43.449"/>
			<rect x="300.273" y="181.718" fill="#D0D2D3" width="3.481" height="43.449"/>
			<rect x="326.983" y="181.718" fill="#D0D2D3" width="3.479" height="43.449"/>
			<rect x="333.463" y="181.718" fill="#D0D2D3" width="3.48" height="43.449"/>
			<rect x="343.67" y="181.718" fill="#D0D2D3" width="3.481" height="43.449"/>
			<rect x="350.177" y="181.718" fill="#D0D2D3" width="3.481" height="43.449"/>
			<rect x="308.755" y="181.718" fill="#D0D2D3" width="3.481" height="43.449"/>
			<rect x="319.318" y="181.718" fill="#D0D2D3" width="3.482" height="43.449"/>
		</g>
		<g>
			<g>
				<path fill="#D0D2D3" d="M281.225,182.681V182.5h-0.249c-0.078-0.033-0.156-0.053-0.238-0.053c-0.081,0-0.161,0.02-0.238,0.053
					h-4c-0.077-0.033-0.157-0.053-0.238-0.053c-0.081,0-0.16,0.02-0.237,0.053h-0.249v0.181c-0.401,0.401-0.682,1.284-0.682,2.31
					c0,1.404,0.523,2.541,1.167,2.541c0.587,0,1.071-0.942,1.154-2.171h2.168c0.082,1.229,0.567,2.171,1.154,2.171
					c0.645,0,1.167-1.137,1.167-2.541C281.906,183.965,281.626,183.082,281.225,182.681z"/>
			</g>
			<g>
				<path fill="#D0D2D3" d="M287.89,182.681V182.5h-0.249c-0.076-0.033-0.156-0.053-0.237-0.053c-0.082,0-0.161,0.02-0.238,0.053h-4
					c-0.077-0.033-0.156-0.053-0.237-0.053c-0.082,0-0.161,0.02-0.238,0.053h-0.249v0.181c-0.401,0.401-0.681,1.284-0.681,2.31
					c0,1.404,0.523,2.541,1.168,2.541c0.585,0,1.07-0.942,1.154-2.171h2.167c0.082,1.229,0.567,2.171,1.154,2.171
					c0.645,0,1.167-1.137,1.167-2.541C288.57,183.965,288.292,183.082,287.89,182.681z"/>
			</g>
			<g>
				<path fill="#D0D2D3" d="M297.968,182.681V182.5h-0.249c-0.077-0.033-0.156-0.053-0.237-0.053c-0.082,0-0.163,0.02-0.238,0.053
					h-4c-0.078-0.033-0.156-0.053-0.238-0.053c-0.081,0-0.162,0.02-0.238,0.053h-0.248v0.181c-0.403,0.401-0.682,1.284-0.682,2.31
					c0,1.404,0.522,2.541,1.167,2.541c0.587,0,1.072-0.942,1.154-2.171h2.168c0.082,1.229,0.565,2.171,1.153,2.171
					c0.645,0,1.167-1.137,1.167-2.541C298.649,183.965,298.37,183.082,297.968,182.681z"/>
			</g>
			<g>
				<path fill="#D0D2D3" d="M304.738,182.681V182.5h-0.249c-0.076-0.033-0.157-0.053-0.237-0.053c-0.083,0-0.161,0.02-0.238,0.053
					h-4c-0.076-0.033-0.156-0.053-0.237-0.053c-0.082,0-0.161,0.02-0.237,0.053h-0.25v0.181c-0.4,0.401-0.681,1.284-0.681,2.31
					c0,1.404,0.523,2.541,1.168,2.541c0.586,0,1.071-0.942,1.153-2.171h2.168c0.082,1.229,0.566,2.171,1.154,2.171
					c0.644,0,1.166-1.137,1.166-2.541C305.417,183.965,305.14,183.082,304.738,182.681z"/>
			</g>
			<g>
				<path fill="#D0D2D3" d="M331.448,182.681V182.5h-0.249c-0.078-0.033-0.154-0.053-0.239-0.053c-0.081,0-0.159,0.02-0.236,0.053
					h-3.999c-0.078-0.033-0.156-0.053-0.238-0.053s-0.161,0.02-0.236,0.053H326v0.181c-0.4,0.401-0.68,1.284-0.68,2.31
					c0,1.404,0.521,2.541,1.166,2.541c0.586,0,1.07-0.942,1.152-2.171h2.168c0.083,1.229,0.568,2.171,1.153,2.171
					c0.646,0,1.169-1.137,1.169-2.541C332.129,183.965,331.85,183.082,331.448,182.681z"/>
			</g>
			<g>
				<path fill="#D0D2D3" d="M337.928,182.681V182.5h-0.25c-0.076-0.033-0.156-0.053-0.237-0.053s-0.161,0.02-0.239,0.053h-3.999
					c-0.076-0.033-0.155-0.053-0.237-0.053c-0.081,0-0.158,0.02-0.238,0.053h-0.248v0.181c-0.4,0.401-0.682,1.284-0.682,2.31
					c0,1.404,0.523,2.541,1.168,2.541c0.588,0,1.071-0.942,1.154-2.171h2.168c0.082,1.229,0.568,2.171,1.153,2.171
					c0.646,0,1.168-1.137,1.168-2.541C338.608,183.965,338.328,183.082,337.928,182.681z"/>
			</g>
			<g>
				<path fill="#D0D2D3" d="M348.136,182.681V182.5h-0.251c-0.076-0.033-0.154-0.053-0.236-0.053s-0.16,0.02-0.238,0.053h-4
					c-0.076-0.033-0.156-0.053-0.236-0.053c-0.082,0-0.162,0.02-0.238,0.053h-0.248v0.181c-0.402,0.401-0.681,1.284-0.681,2.31
					c0,1.404,0.521,2.541,1.167,2.541c0.587,0,1.07-0.942,1.152-2.171h2.169c0.082,1.229,0.567,2.171,1.153,2.171
					c0.645,0,1.168-1.137,1.168-2.541C348.816,183.965,348.535,183.082,348.136,182.681z"/>
			</g>
			<g>
				<path fill="#D0D2D3" d="M354.643,182.681V182.5h-0.248c-0.079-0.033-0.158-0.053-0.239-0.053s-0.16,0.02-0.237,0.053h-3.998
					c-0.08-0.033-0.158-0.053-0.24-0.053c-0.08,0-0.16,0.02-0.236,0.053h-0.25v0.181c-0.4,0.401-0.68,1.284-0.68,2.31
					c0,1.404,0.521,2.541,1.166,2.541c0.587,0,1.071-0.942,1.154-2.171h2.168c0.082,1.229,0.566,2.171,1.153,2.171
					c0.646,0,1.168-1.137,1.168-2.541C355.323,183.965,355.044,183.082,354.643,182.681z"/>
			</g>
			<g>
				<path fill="#D0D2D3" d="M323.783,182.681V182.5h-0.248c-0.077-0.033-0.156-0.053-0.238-0.053c-0.08,0-0.159,0.02-0.237,0.053
					h-3.999c-0.076-0.033-0.156-0.053-0.238-0.053s-0.16,0.02-0.236,0.053h-0.25v0.181c-0.4,0.401-0.682,1.284-0.682,2.31
					c0,1.404,0.523,2.541,1.168,2.541c0.587,0,1.071-0.942,1.154-2.171h2.168c0.083,1.229,0.566,2.171,1.152,2.171
					c0.646,0,1.169-1.137,1.169-2.541C324.466,183.965,324.186,183.082,323.783,182.681z"/>
			</g>
			<g>
				<path fill="#D0D2D3" d="M313.219,182.681V182.5h-0.249c-0.077-0.033-0.156-0.053-0.238-0.053c-0.081,0-0.162,0.02-0.237,0.053
					h-3.999c-0.077-0.033-0.157-0.053-0.239-0.053c-0.081,0-0.161,0.02-0.238,0.053h-0.248v0.181
					c-0.403,0.401-0.681,1.284-0.681,2.31c0,1.404,0.522,2.541,1.167,2.541c0.587,0,1.071-0.942,1.154-2.171h2.167
					c0.083,1.229,0.568,2.171,1.154,2.171c0.644,0,1.168-1.137,1.168-2.541C313.9,183.965,313.621,183.082,313.219,182.681z"/>
			</g>
		</g>
		<rect x="238.188" y="181.285" fill="#D0D2D3" width="156.266" height="3.849"/>
		<rect x="238.188" y="222.596" fill="#D0D2D3" width="156.266" height="48.593"/>
		<g>
			<rect x="251.148" y="190.717" fill="#BBBDBF" width="5.939" height="7.727"/>
			<rect x="251.148" y="204.469" fill="#BBBDBF" width="5.939" height="14.999"/>
			<rect x="251.148" y="227.008" fill="#BBBDBF" width="5.939" height="14.999"/>
			<rect x="278.208" y="227.008" fill="#BBBDBF" width="5.94" height="14.999"/>
			<rect x="295.64" y="227.008" fill="#BBBDBF" width="5.938" height="14.999"/>
			<rect x="312.493" y="227.008" fill="#BBBDBF" width="5.939" height="14.999"/>
			<rect x="328.828" y="227.008" fill="#BBBDBF" width="5.939" height="14.999"/>
			<rect x="345.544" y="227.008" fill="#BBBDBF" width="5.94" height="14.999"/>
			<rect x="374.087" y="190.717" fill="#BBBDBF" width="5.939" height="7.727"/>
			<rect x="374.087" y="204.469" fill="#BBBDBF" width="5.939" height="14.999"/>
			<rect x="374.087" y="227.008" fill="#BBBDBF" width="5.939" height="14.999"/>
		</g>
		<rect x="238.188" y="242.141" fill="#F1F1F2" width="156.266" height="4.076"/>
		<g>
			<path fill="#BBBDBF" d="M321.264,256.539c0-1.618-2.214-2.931-4.942-2.931c-2.73,0-4.944,1.312-4.944,2.931v14.649h9.886V256.539
				z"/>
			<path fill="#BBBDBF" d="M300.582,256.539c0-1.618-2.213-2.931-4.941-2.931c-2.731,0-4.945,1.312-4.945,2.931v14.649h9.886
				V256.539z"/>
			<path fill="#BBBDBF" d="M280.039,256.54c0-1.619-2.213-2.932-4.941-2.932c-2.731,0-4.944,1.312-4.944,2.932v14.649h9.886V256.54z
				"/>
			<path fill="#BBBDBF" d="M259.061,256.54c0-1.619-2.213-2.931-4.941-2.931c-2.731,0-4.944,1.312-4.944,2.931v14.649h9.886V256.54z
				"/>
			<path fill="#BBBDBF" d="M382.315,256.539c0-1.618-2.214-2.931-4.942-2.931c-2.729,0-4.943,1.312-4.943,2.931v14.649h9.886
				V256.539z"/>
			<path fill="#BBBDBF" d="M361.771,256.54c0-1.619-2.214-2.932-4.941-2.932c-2.732,0-4.944,1.312-4.944,2.932v14.649h9.886V256.54z
				"/>
			<path fill="#BBBDBF" d="M340.794,256.54c0-1.619-2.214-2.931-4.942-2.931c-2.73,0-4.943,1.312-4.943,2.931v14.649h9.886V256.54z"
				/>
		</g>
	</g>
	<g>
		<path fill="#E6E7E8" d="M351.861,103.227c0-22.291-16.132-40.361-36.029-40.361c-19.898,0-36.03,18.07-36.03,40.361v0.001
			L351.861,103.227L351.861,103.227z"/>
		<rect x="308.091" y="42.101" fill="#E6E7E8" width="15.235" height="22.405"/>
		<path fill="#E6E7E8" d="M324.345,42.101c0,1.031-0.883,1.867-1.975,1.867h-13.324c-1.091,0-1.975-0.836-1.975-1.867l0,0
			c0-1.031,0.884-1.867,1.975-1.867h13.324C323.462,40.234,324.345,41.07,324.345,42.101L324.345,42.101z"/>
		<g>
			<path fill="#58595B" d="M321.461,40.234c0-2.005-2.644-3.63-5.903-3.63c-3.261,0-5.904,1.625-5.904,3.63l0,0H321.461
				L321.461,40.234z"/>
			<ellipse fill="#58595B" cx="315.661" cy="30.423" rx="3.839" ry="3.63"/>
			<rect x="313.69" y="30.423" fill="#58595B" width="3.736" height="7.996"/>
			<ellipse fill="#58595B" cx="315.558" cy="22.967" rx="2.911" ry="9.222"/>
			<ellipse fill="#58595B" cx="315.558" cy="12.765" rx="1.868" ry="1.766"/>
		</g>
		<g>
			<rect x="309.509" y="43.967" fill="#BBBDBF" width="2.776" height="15.865"/>
			<rect x="313.848" y="43.967" fill="#BBBDBF" width="3.969" height="15.865"/>
			<rect x="319.256" y="43.967" fill="#BBBDBF" width="2.775" height="15.865"/>
		</g>
		<path fill="#E6E7E8" d="M324.345,62.865c0,1.03-0.883,1.867-1.975,1.867h-13.324c-1.091,0-1.975-0.837-1.975-1.867l0,0
			c0-1.031,0.884-1.867,1.975-1.867h13.324C323.462,60.998,324.345,61.834,324.345,62.865L324.345,62.865z"/>
		<rect x="303.863" y="62.865" fill="#E6E7E8" width="23.32" height="4.2"/>
		<path fill="#E6E7E8" d="M355.687,109.41c0,1.16-0.994,2.1-2.222,2.1h-75.881c-1.227,0-2.221-0.939-2.221-2.1v-1.049
			c0-1.16,0.994-2.101,2.221-2.101h75.881c1.228,0,2.222,0.94,2.222,2.101V109.41z"/>
		<rect x="277.954" y="98.912" fill="#E6E7E8" width="75.511" height="7.349"/>
		<rect x="277.583" y="108.886" fill="#E6E7E8" width="75.881" height="22.572"/>
		<g>
			<rect x="315.209" y="87.363" fill="#BBBDBF" width="2.222" height="7.35"/>
			<rect x="323.476" y="87.363" fill="#BBBDBF" width="2.22" height="7.35"/>
			<rect x="330.386" y="87.363" fill="#BBBDBF" width="2.22" height="7.35"/>
			<rect x="337.789" y="87.363" fill="#BBBDBF" width="2.221" height="7.35"/>
			<rect x="343.711" y="87.363" fill="#BBBDBF" width="2.221" height="7.35"/>
			<rect x="285.733" y="87.363" fill="#BBBDBF" width="2.221" height="7.35"/>
			<rect x="291.163" y="87.363" fill="#BBBDBF" width="2.22" height="7.35"/>
			<rect x="299.306" y="87.363" fill="#BBBDBF" width="2.221" height="7.35"/>
			<rect x="306.709" y="87.363" fill="#BBBDBF" width="2.221" height="7.35"/>
		</g>
		<path fill="#E6E7E8" d="M362.59,133.295c0,1.16-1.174,2.101-2.621,2.101H270.45c-1.446,0-2.62-0.94-2.62-2.101v-1.049
			c0-1.16,1.173-2.1,2.62-2.1h89.519c1.447,0,2.621,0.939,2.621,2.1V133.295z"/>
		<rect x="271.801" y="132.771" fill="#E6E7E8" width="87.501" height="33.945"/>
		<rect x="271.801" y="125.858" fill="#E6E7E8" width="87.501" height="6.913"/>
		<g>
			<path fill="#BBBDBF" d="M318.43,113.873c0-1.305-1.293-2.363-2.888-2.363s-2.889,1.059-2.889,2.363v11.811h5.777V113.873z"/>
			<path fill="#BBBDBF" d="M326.158,113.873c0-1.305-0.981-2.363-2.188-2.363c-1.209,0-2.188,1.059-2.188,2.363v11.811h4.375
				V113.873z"/>
			<path fill="#BBBDBF" d="M333.809,113.873c0-1.305-0.98-2.363-2.188-2.363c-1.209,0-2.188,1.059-2.188,2.363v11.811h4.376V113.873
				z"/>
			<path fill="#BBBDBF" d="M340.963,113.873c0-1.305-0.979-2.363-2.187-2.363c-1.208,0-2.188,1.059-2.188,2.363v11.811h4.375
				V113.873z"/>
			<path fill="#BBBDBF" d="M347.01,113.873c0-1.305-0.869-2.363-1.941-2.363c-1.07,0-1.939,1.059-1.939,2.363v11.811h3.881V113.873z
				"/>
			<path fill="#BBBDBF" d="M351.614,113.873c0-1.305-0.664-2.363-1.482-2.363c-0.819,0-1.484,1.059-1.484,2.363v11.811h2.967
				V113.873z"/>
			<path fill="#BBBDBF" d="M305.151,113.873c0-1.305,0.981-2.363,2.187-2.363c1.209,0,2.188,1.059,2.188,2.363v11.811h-4.375
				V113.873z"/>
			<path fill="#BBBDBF" d="M297.502,113.873c0-1.305,0.979-2.363,2.187-2.363s2.188,1.059,2.188,2.363v11.811h-4.374V113.873z"/>
			<path fill="#BBBDBF" d="M290.346,113.873c0-1.305,0.979-2.363,2.186-2.363c1.209,0,2.188,1.059,2.188,2.363v11.811h-4.374
				V113.873z"/>
			<path fill="#BBBDBF" d="M284.299,113.873c0-1.305,0.87-2.363,1.941-2.363s1.94,1.059,1.94,2.363v11.811h-3.881V113.873z"/>
			<path fill="#BBBDBF" d="M279.694,113.873c0-1.305,0.665-2.363,1.483-2.363c0.82,0,1.484,1.059,1.484,2.363v11.811h-2.968V113.873
				z"/>
		</g>
		<g>
			<rect x="312.571" y="134.112" fill="#BBBDBF" width="5.276" height="28.463"/>
			<rect x="323.477" y="134.112" fill="#BBBDBF" width="3.949" height="28.463"/>
			<rect x="332.113" y="134.112" fill="#BBBDBF" width="3.948" height="28.463"/>
			<rect x="340.469" y="134.112" fill="#BBBDBF" width="3.949" height="28.463"/>
			<rect x="348.771" y="134.112" fill="#BBBDBF" width="3.454" height="28.463"/>
			<rect x="355.208" y="134.112" fill="#BBBDBF" width="2.808" height="28.463"/>
			<rect x="303.667" y="134.112" fill="#BBBDBF" width="3.948" height="28.463"/>
			<rect x="295.03" y="134.112" fill="#BBBDBF" width="3.948" height="28.463"/>
			<rect x="286.673" y="134.112" fill="#BBBDBF" width="3.949" height="28.463"/>
			<rect x="278.866" y="134.112" fill="#BBBDBF" width="3.455" height="28.463"/>
			<rect x="273.077" y="134.112" fill="#BBBDBF" width="2.809" height="28.463"/>
		</g>
		<path fill="#E6E7E8" d="M365.31,167.738c0,0.965-1.657,1.748-3.702,1.748h-92.291c-2.044,0-3.702-0.783-3.702-1.748v-3.034
			c0-0.966,1.658-1.75,3.702-1.75h92.291c2.045,0,3.702,0.784,3.702,1.75V167.738z"/>
		<rect x="269.316" y="166.221" fill="#E6E7E8" width="93.273" height="15.064"/>
	</g>
	<g>
		<path fill-rule="evenodd" clip-rule="evenodd" fill="#FFFFFF" d="M335.891,162.176c-6.396-2.713-12.791,2.711-19.186,0.002
			c0-3.479,0-6.956,0-10.435c6.395,2.71,12.79-2.714,19.186-0.001C335.891,155.221,335.891,158.698,335.891,162.176z"/>
		<g>
			<path fill-rule="evenodd" clip-rule="evenodd" fill="#808080" d="M335.887,152.541c-6.395-2.709-12.789,2.713-19.182,0.002
				c0-0.266,0-0.533,0-0.8c6.393,2.71,12.788-2.712,19.182-0.002C335.887,152.008,335.887,152.273,335.887,152.541z"/>
			<path fill-rule="evenodd" clip-rule="evenodd" fill="#808080" d="M335.884,154.119c-6.394-2.707-12.788,2.715-19.182,0.002
				c0-0.266,0-0.533,0-0.8c6.394,2.712,12.788-2.709,19.182-0.003C335.884,153.586,335.884,153.854,335.884,154.119z"/>
			<path fill-rule="evenodd" clip-rule="evenodd" fill="#808080" d="M335.889,155.742c-6.395-2.713-12.789,2.709-19.182,0.001
				c0-0.267,0-0.532,0-0.802c6.393,2.71,12.788-2.711,19.182-0.002C335.889,155.207,335.889,155.474,335.889,155.742z"/>
			<path fill-rule="evenodd" clip-rule="evenodd" fill="#808080" d="M335.884,157.357c-6.394-2.707-12.788,2.714-19.182,0.002
				c0-0.267,0-0.533,0-0.801c6.394,2.713,12.788-2.71,19.182-0.003C335.884,156.822,335.884,157.09,335.884,157.357z"/>
			<path fill-rule="evenodd" clip-rule="evenodd" fill="#808080" d="M335.884,158.946c-6.394-2.706-12.788,2.714-19.182,0.003
				c0-0.267,0-0.534,0-0.801c6.394,2.712,12.788-2.71,19.182-0.003C335.884,158.412,335.884,158.68,335.884,158.946z"/>
			<path fill-rule="evenodd" clip-rule="evenodd" fill="#808080" d="M335.887,160.57c-6.395-2.709-12.789,2.713-19.182,0.004
				c0-0.269,0-0.535,0-0.802c6.393,2.71,12.788-2.712,19.182-0.003C335.887,160.037,335.887,160.304,335.887,160.57z"/>
			<path fill-rule="evenodd" clip-rule="evenodd" fill="#808080" d="M335.884,162.174c-6.394-2.707-12.788,2.713-19.182,0.002
				c0-0.268,0-0.533,0-0.801c6.394,2.713,12.788-2.71,19.182-0.003C335.884,161.639,335.884,161.905,335.884,162.174z"/>
		</g>
		<path fill-rule="evenodd" clip-rule="evenodd" fill="#808080" d="M316.705,151.743c2.598,1.103,5.198,0.86,7.797,0.366
			c0,1.865,0,3.73,0,5.596c-2.6,0.493-5.199,0.736-7.797-0.367C316.705,155.473,316.705,153.607,316.705,151.743z"/>
		<g>
			<path fill-rule="evenodd" clip-rule="evenodd" fill="#FFFFFF" d="M320.911,155.785c-0.06,0.045-0.13,0.102-0.19,0.146
				c0.023,0.076,0.047,0.148,0.069,0.219c-0.069-0.043-0.124-0.079-0.196-0.127c-0.059,0.041-0.121,0.084-0.189,0.129
				c0.027-0.09,0.047-0.15,0.067-0.225c-0.061-0.046-0.116-0.102-0.181-0.151c0.047,0.003,0.068,0.003,0.113,0.004
				c0.037-0.001,0.074,0.002,0.115,0.003c0.025-0.073,0.043-0.127,0.07-0.211c0.031,0.075,0.055,0.139,0.084,0.213
				C320.761,155.786,320.844,155.785,320.911,155.785z"/>
			<path fill-rule="evenodd" clip-rule="evenodd" fill="#FFFFFF" d="M320.256,156.332c-0.059,0.042-0.128,0.096-0.189,0.138
				c0.023,0.076,0.047,0.149,0.07,0.222c-0.071-0.047-0.124-0.085-0.197-0.139c-0.059,0.039-0.123,0.076-0.19,0.12
				c0.026-0.089,0.047-0.147,0.067-0.223c-0.059-0.048-0.114-0.106-0.181-0.16c0.048,0.005,0.07,0.007,0.112,0.011
				c0.039,0.001,0.077,0.006,0.117,0.008c0.025-0.07,0.043-0.124,0.072-0.207c0.028,0.078,0.053,0.143,0.082,0.217
				C320.105,156.324,320.189,156.329,320.256,156.332z"/>
			<path fill-rule="evenodd" clip-rule="evenodd" fill="#FFFFFF" d="M321.564,156.32c-0.061,0.049-0.131,0.108-0.191,0.156
				c0.023,0.074,0.046,0.146,0.07,0.216c-0.07-0.04-0.127-0.072-0.197-0.118c-0.06,0.043-0.121,0.088-0.189,0.139
				c0.026-0.091,0.047-0.152,0.066-0.229c-0.06-0.043-0.115-0.095-0.179-0.143c0.046,0,0.066,0,0.111-0.001
				c0.036-0.003,0.075-0.003,0.116-0.004c0.023-0.073,0.044-0.128,0.07-0.214c0.029,0.074,0.054,0.138,0.084,0.209
				C321.412,156.328,321.494,156.324,321.564,156.32z"/>
			<path fill-rule="evenodd" clip-rule="evenodd" fill="#FFFFFF" d="M321.558,155.213c-0.059,0.049-0.129,0.108-0.19,0.156
				c0.024,0.074,0.047,0.145,0.07,0.216c-0.07-0.041-0.125-0.073-0.195-0.119c-0.061,0.045-0.122,0.089-0.191,0.14
				c0.027-0.092,0.047-0.152,0.066-0.229c-0.058-0.043-0.115-0.095-0.18-0.143c0.047-0.001,0.069-0.001,0.113-0.001
				c0.037-0.003,0.076-0.003,0.116-0.005c0.024-0.072,0.044-0.127,0.071-0.213c0.028,0.073,0.053,0.137,0.083,0.209
				C321.405,155.222,321.49,155.217,321.558,155.213z"/>
			<path fill-rule="evenodd" clip-rule="evenodd" fill="#FFFFFF" d="M320.911,154.696c-0.06,0.046-0.13,0.103-0.19,0.147
				c0.023,0.074,0.047,0.146,0.069,0.219c-0.069-0.045-0.124-0.078-0.196-0.128c-0.059,0.041-0.121,0.083-0.189,0.13
				c0.027-0.09,0.047-0.15,0.067-0.225c-0.061-0.046-0.116-0.1-0.181-0.15c0.047,0.001,0.068,0.002,0.113,0.004
				c0.037-0.002,0.074,0,0.115,0.002c0.025-0.072,0.043-0.127,0.07-0.212c0.031,0.075,0.055,0.14,0.084,0.214
				C320.761,154.697,320.844,154.697,320.911,154.696z"/>
			<path fill-rule="evenodd" clip-rule="evenodd" fill="#FFFFFF" d="M322.861,155.088c-0.059,0.053-0.129,0.119-0.189,0.172
				c0.023,0.072,0.047,0.141,0.068,0.209c-0.068-0.035-0.123-0.063-0.195-0.104c-0.061,0.049-0.121,0.1-0.19,0.155
				c0.028-0.093,0.048-0.156,0.067-0.235c-0.06-0.037-0.115-0.084-0.181-0.125c0.048-0.005,0.069-0.008,0.113-0.012
				c0.036-0.006,0.076-0.009,0.114-0.014c0.026-0.074,0.045-0.131,0.072-0.219c0.029,0.07,0.055,0.132,0.084,0.201
				C322.709,155.107,322.794,155.098,322.861,155.088z"/>
			<path fill-rule="evenodd" clip-rule="evenodd" fill="#FFFFFF" d="M322.215,154.623c-0.061,0.051-0.129,0.113-0.19,0.164
				c0.022,0.074,0.048,0.143,0.07,0.213c-0.071-0.038-0.124-0.067-0.197-0.111c-0.06,0.047-0.12,0.096-0.19,0.148
				c0.029-0.092,0.047-0.154,0.068-0.232c-0.061-0.039-0.116-0.088-0.18-0.133c0.045-0.003,0.069-0.004,0.111-0.008
				c0.037-0.004,0.076-0.006,0.116-0.008c0.024-0.074,0.044-0.131,0.072-0.218c0.028,0.073,0.052,0.136,0.082,0.206
				C322.062,154.637,322.146,154.63,322.215,154.623z"/>
			<path fill-rule="evenodd" clip-rule="evenodd" fill="#FFFFFF" d="M322.225,153.506c-0.06,0.05-0.129,0.113-0.191,0.164
				c0.023,0.071,0.047,0.142,0.07,0.211c-0.07-0.037-0.124-0.066-0.194-0.109c-0.062,0.045-0.123,0.094-0.192,0.146
				c0.027-0.091,0.048-0.154,0.068-0.23c-0.061-0.04-0.115-0.09-0.18-0.133c0.046-0.005,0.068-0.006,0.111-0.008
				c0.037-0.005,0.076-0.006,0.117-0.01c0.023-0.074,0.043-0.13,0.07-0.217c0.029,0.073,0.055,0.135,0.084,0.205
				C322.072,153.518,322.156,153.512,322.225,153.506z"/>
			<path fill-rule="evenodd" clip-rule="evenodd" fill="#FFFFFF" d="M321.558,154.105c-0.059,0.048-0.129,0.108-0.19,0.156
				c0.024,0.074,0.047,0.145,0.07,0.215c-0.07-0.04-0.125-0.072-0.195-0.118c-0.061,0.044-0.122,0.089-0.191,0.14
				c0.027-0.092,0.047-0.152,0.066-0.229c-0.058-0.044-0.115-0.096-0.18-0.143c0.047,0,0.069-0.001,0.113-0.002
				c0.037-0.002,0.076-0.002,0.116-0.004c0.024-0.073,0.044-0.128,0.071-0.213c0.028,0.073,0.053,0.137,0.083,0.209
				C321.405,154.113,321.49,154.109,321.558,154.105z"/>
			<path fill-rule="evenodd" clip-rule="evenodd" fill="#FFFFFF" d="M321.568,152.986c-0.061,0.049-0.129,0.11-0.191,0.158
				c0.023,0.073,0.048,0.145,0.069,0.215c-0.069-0.041-0.122-0.074-0.196-0.119c-0.059,0.044-0.121,0.089-0.189,0.14
				c0.027-0.091,0.047-0.152,0.067-0.229c-0.06-0.042-0.115-0.094-0.179-0.141c0.045-0.001,0.068-0.001,0.111-0.002
				c0.037-0.003,0.074-0.002,0.117-0.004c0.023-0.073,0.043-0.128,0.069-0.215c0.028,0.075,0.054,0.139,0.083,0.209
				C321.416,152.996,321.499,152.992,321.568,152.986z"/>
			<path fill-rule="evenodd" clip-rule="evenodd" fill="#FFFFFF" d="M320.911,153.579c-0.06,0.046-0.13,0.103-0.19,0.147
				c0.023,0.074,0.047,0.146,0.069,0.219c-0.069-0.045-0.124-0.079-0.196-0.129c-0.059,0.043-0.121,0.084-0.189,0.131
				c0.027-0.09,0.047-0.15,0.067-0.226c-0.061-0.046-0.116-0.1-0.181-0.151c0.047,0.002,0.068,0.003,0.113,0.004
				c0.037,0,0.074,0.001,0.115,0.002c0.025-0.07,0.043-0.125,0.07-0.21c0.031,0.075,0.055,0.14,0.084,0.214
				C320.761,153.58,320.844,153.58,320.911,153.579z"/>
			<path fill-rule="evenodd" clip-rule="evenodd" fill="#FFFFFF" d="M320.266,153.012c-0.062,0.041-0.131,0.096-0.191,0.138
				c0.023,0.075,0.046,0.149,0.069,0.222c-0.07-0.048-0.124-0.086-0.196-0.139c-0.06,0.039-0.121,0.077-0.189,0.119
				c0.027-0.088,0.047-0.146,0.066-0.222c-0.059-0.048-0.115-0.105-0.18-0.159c0.047,0.004,0.068,0.006,0.111,0.01
				c0.039,0.002,0.074,0.006,0.117,0.009c0.023-0.071,0.043-0.124,0.07-0.207c0.029,0.077,0.053,0.143,0.083,0.218
				C320.113,153.005,320.195,153.009,320.266,153.012z"/>
			<path fill-rule="evenodd" clip-rule="evenodd" fill="#FFFFFF" d="M317.668,152.578c-0.061,0.026-0.13,0.061-0.191,0.087
				c0.023,0.082,0.046,0.161,0.069,0.24c-0.069-0.067-0.124-0.118-0.196-0.192c-0.061,0.023-0.12,0.045-0.191,0.067
				c0.028-0.08,0.048-0.134,0.068-0.203c-0.059-0.065-0.115-0.138-0.181-0.21c0.048,0.018,0.069,0.025,0.112,0.041
				c0.038,0.012,0.076,0.026,0.117,0.041c0.024-0.064,0.044-0.111,0.07-0.188c0.029,0.086,0.055,0.158,0.084,0.24
				C317.514,152.531,317.599,152.557,317.668,152.578z"/>
			<path fill-rule="evenodd" clip-rule="evenodd" fill="#FFFFFF" d="M318.971,152.886c-0.06,0.036-0.129,0.081-0.191,0.114
				c0.023,0.08,0.046,0.156,0.07,0.231c-0.07-0.057-0.124-0.102-0.196-0.163c-0.061,0.03-0.121,0.062-0.191,0.096
				c0.028-0.084,0.048-0.142,0.067-0.213c-0.058-0.057-0.115-0.121-0.178-0.184c0.045,0.01,0.068,0.016,0.11,0.023
				c0.038,0.007,0.076,0.016,0.116,0.024c0.025-0.068,0.045-0.118,0.072-0.198c0.029,0.08,0.054,0.148,0.082,0.229
				C318.818,152.861,318.902,152.875,318.971,152.886z"/>
			<path fill-rule="evenodd" clip-rule="evenodd" fill="#FFFFFF" d="M319.607,153.525c-0.06,0.041-0.129,0.088-0.191,0.127
				c0.024,0.076,0.047,0.152,0.071,0.227c-0.071-0.052-0.124-0.093-0.196-0.15c-0.062,0.035-0.121,0.07-0.191,0.107
				c0.028-0.086,0.047-0.145,0.068-0.217c-0.06-0.052-0.116-0.113-0.18-0.172c0.045,0.008,0.068,0.01,0.111,0.018
				c0.037,0.003,0.076,0.009,0.115,0.015c0.026-0.067,0.045-0.12,0.072-0.202c0.03,0.079,0.054,0.146,0.082,0.223
				C319.455,153.51,319.539,153.518,319.607,153.525z"/>
			<path fill-rule="evenodd" clip-rule="evenodd" fill="#FFFFFF" d="M318.314,153.317c-0.061,0.032-0.131,0.071-0.191,0.101
				c0.024,0.082,0.046,0.158,0.068,0.236c-0.069-0.061-0.123-0.108-0.195-0.176c-0.06,0.025-0.121,0.053-0.189,0.081
				c0.025-0.083,0.047-0.138,0.066-0.209c-0.059-0.061-0.115-0.13-0.18-0.196c0.048,0.014,0.067,0.021,0.111,0.033
				c0.039,0.009,0.076,0.021,0.117,0.031c0.025-0.066,0.045-0.115,0.07-0.193c0.029,0.084,0.055,0.154,0.082,0.234
				C318.162,153.282,318.244,153.302,318.314,153.317z"/>
			<path fill-rule="evenodd" clip-rule="evenodd" fill="#FFFFFF" d="M317.66,153.7c-0.061,0.026-0.129,0.062-0.191,0.087
				c0.023,0.082,0.047,0.161,0.069,0.24c-0.071-0.066-0.124-0.117-0.195-0.191c-0.06,0.021-0.122,0.043-0.19,0.066
				c0.026-0.08,0.047-0.135,0.066-0.203c-0.059-0.065-0.115-0.139-0.18-0.21c0.047,0.018,0.068,0.026,0.111,0.04
				c0.04,0.012,0.076,0.027,0.117,0.043c0.024-0.064,0.043-0.111,0.072-0.188c0.027,0.085,0.052,0.157,0.082,0.241
				C317.508,153.654,317.59,153.68,317.66,153.7z"/>
			<path fill-rule="evenodd" clip-rule="evenodd" fill="#FFFFFF" d="M318.966,154.002c-0.062,0.036-0.129,0.08-0.19,0.115
				c0.023,0.079,0.045,0.154,0.069,0.23c-0.069-0.057-0.124-0.101-0.196-0.162c-0.059,0.03-0.121,0.061-0.189,0.095
				c0.025-0.085,0.045-0.142,0.066-0.214c-0.059-0.055-0.115-0.121-0.18-0.184c0.046,0.011,0.068,0.016,0.112,0.025
				c0.037,0.006,0.075,0.016,0.116,0.023c0.024-0.066,0.043-0.117,0.07-0.198c0.028,0.081,0.054,0.148,0.083,0.228
				C318.813,153.978,318.897,153.992,318.966,154.002z"/>
			<path fill-rule="evenodd" clip-rule="evenodd" fill="#FFFFFF" d="M318.314,154.426c-0.061,0.031-0.131,0.07-0.191,0.102
				c0.024,0.08,0.046,0.157,0.068,0.235c-0.069-0.062-0.123-0.11-0.195-0.178c-0.06,0.026-0.121,0.053-0.189,0.081
				c0.025-0.082,0.047-0.137,0.066-0.208c-0.059-0.061-0.115-0.129-0.18-0.196c0.048,0.015,0.067,0.021,0.111,0.031
				c0.039,0.01,0.076,0.022,0.117,0.033c0.025-0.066,0.045-0.114,0.07-0.192c0.029,0.083,0.055,0.153,0.082,0.233
				C318.162,154.391,318.244,154.409,318.314,154.426z"/>
			<path fill-rule="evenodd" clip-rule="evenodd" fill="#FFFFFF" d="M317.66,154.808c-0.061,0.027-0.129,0.062-0.191,0.088
				c0.023,0.081,0.047,0.161,0.069,0.239c-0.071-0.066-0.124-0.118-0.195-0.191c-0.06,0.023-0.122,0.043-0.19,0.066
				c0.026-0.08,0.047-0.135,0.066-0.202c-0.059-0.065-0.115-0.139-0.18-0.211c0.047,0.017,0.068,0.026,0.111,0.041
				c0.04,0.013,0.076,0.026,0.117,0.042c0.024-0.064,0.043-0.111,0.072-0.188c0.027,0.086,0.052,0.156,0.082,0.24
				C317.508,154.762,317.59,154.787,317.66,154.808z"/>
			<path fill-rule="evenodd" clip-rule="evenodd" fill="#FFFFFF" d="M318.966,155.109c-0.062,0.035-0.129,0.08-0.19,0.115
				c0.023,0.08,0.045,0.156,0.069,0.23c-0.069-0.057-0.124-0.101-0.196-0.162c-0.059,0.031-0.121,0.061-0.189,0.095
				c0.025-0.083,0.045-0.142,0.066-0.213c-0.059-0.056-0.115-0.121-0.18-0.183c0.046,0.01,0.068,0.015,0.112,0.023
				c0.037,0.006,0.075,0.015,0.116,0.023c0.024-0.066,0.043-0.117,0.07-0.198c0.028,0.081,0.054,0.149,0.083,0.229
				C318.813,155.086,318.897,155.1,318.966,155.109z"/>
			<path fill-rule="evenodd" clip-rule="evenodd" fill="#FFFFFF" d="M318.314,155.533c-0.061,0.031-0.131,0.071-0.191,0.102
				c0.024,0.081,0.046,0.158,0.068,0.235c-0.069-0.062-0.123-0.11-0.195-0.177c-0.06,0.026-0.121,0.053-0.189,0.082
				c0.025-0.083,0.047-0.139,0.066-0.209c-0.059-0.061-0.115-0.129-0.18-0.197c0.048,0.014,0.067,0.021,0.111,0.033
				c0.039,0.009,0.076,0.021,0.117,0.032c0.025-0.065,0.045-0.114,0.07-0.193c0.029,0.084,0.055,0.152,0.082,0.235
				C318.162,155.498,318.244,155.518,318.314,155.533z"/>
			<path fill-rule="evenodd" clip-rule="evenodd" fill="#FFFFFF" d="M317.66,155.915c-0.061,0.027-0.129,0.062-0.191,0.088
				c0.023,0.082,0.047,0.161,0.069,0.24c-0.071-0.065-0.124-0.118-0.195-0.191c-0.06,0.022-0.122,0.043-0.19,0.065
				c0.026-0.08,0.047-0.135,0.066-0.202c-0.059-0.065-0.115-0.139-0.18-0.211c0.047,0.017,0.068,0.026,0.111,0.041
				c0.04,0.013,0.076,0.027,0.117,0.042c0.024-0.064,0.043-0.111,0.072-0.188c0.027,0.086,0.052,0.156,0.082,0.24
				C317.508,155.867,317.59,155.896,317.66,155.915z"/>
			<path fill-rule="evenodd" clip-rule="evenodd" fill="#FFFFFF" d="M318.966,156.217c-0.062,0.037-0.129,0.081-0.19,0.115
				c0.023,0.08,0.045,0.156,0.069,0.23c-0.069-0.056-0.124-0.1-0.196-0.162c-0.059,0.031-0.121,0.062-0.189,0.096
				c0.025-0.084,0.045-0.143,0.066-0.214c-0.059-0.056-0.115-0.12-0.18-0.185c0.046,0.012,0.068,0.017,0.112,0.025
				c0.037,0.007,0.075,0.016,0.116,0.024c0.024-0.067,0.043-0.118,0.07-0.198c0.028,0.081,0.054,0.148,0.083,0.229
				C318.813,156.193,318.897,156.207,318.966,156.217z"/>
			<path fill-rule="evenodd" clip-rule="evenodd" fill="#FFFFFF" d="M318.314,156.631c-0.061,0.031-0.131,0.07-0.191,0.103
				c0.024,0.079,0.046,0.157,0.068,0.234c-0.069-0.062-0.123-0.108-0.195-0.177c-0.06,0.025-0.121,0.053-0.189,0.081
				c0.025-0.081,0.047-0.139,0.066-0.207c-0.059-0.062-0.115-0.13-0.18-0.197c0.048,0.015,0.067,0.021,0.111,0.032
				c0.039,0.01,0.076,0.021,0.117,0.032c0.025-0.065,0.045-0.114,0.07-0.192c0.029,0.083,0.055,0.152,0.082,0.234
				C318.162,156.595,318.244,156.615,318.314,156.631z"/>
			<path fill-rule="evenodd" clip-rule="evenodd" fill="#FFFFFF" d="M317.66,157.014c-0.061,0.026-0.129,0.061-0.191,0.086
				c0.023,0.084,0.047,0.163,0.069,0.242c-0.071-0.066-0.124-0.119-0.195-0.191c-0.06,0.021-0.122,0.042-0.19,0.065
				c0.026-0.079,0.047-0.135,0.066-0.203c-0.059-0.065-0.115-0.138-0.18-0.211c0.047,0.019,0.068,0.026,0.111,0.042
				c0.04,0.011,0.076,0.027,0.117,0.041c0.024-0.063,0.043-0.111,0.072-0.188c0.027,0.086,0.052,0.156,0.082,0.241
				C317.508,156.967,317.59,156.993,317.66,157.014z"/>
			<path fill-rule="evenodd" clip-rule="evenodd" fill="#FFFFFF" d="M318.966,157.315c-0.062,0.036-0.129,0.081-0.19,0.115
				c0.023,0.079,0.045,0.154,0.069,0.231c-0.069-0.058-0.124-0.102-0.196-0.164c-0.059,0.031-0.121,0.061-0.189,0.096
				c0.025-0.085,0.045-0.142,0.066-0.214c-0.059-0.056-0.115-0.121-0.18-0.183c0.047,0.01,0.068,0.015,0.112,0.023
				c0.037,0.006,0.075,0.017,0.116,0.023c0.024-0.067,0.043-0.117,0.07-0.197c0.028,0.08,0.054,0.149,0.083,0.229
				C318.813,157.291,318.897,157.305,318.966,157.315z"/>
			<path fill-rule="evenodd" clip-rule="evenodd" fill="#FFFFFF" d="M320.901,156.902c-0.06,0.045-0.13,0.103-0.189,0.147
				c0.023,0.075,0.046,0.146,0.067,0.218c-0.069-0.043-0.122-0.078-0.194-0.127c-0.061,0.04-0.123,0.083-0.19,0.129
				c0.027-0.09,0.047-0.149,0.066-0.225c-0.058-0.046-0.114-0.1-0.18-0.151c0.047,0.001,0.07,0.001,0.111,0.005
				c0.039-0.002,0.076,0,0.118,0.001c0.024-0.071,0.044-0.126,0.071-0.211c0.027,0.077,0.051,0.14,0.082,0.214
				C320.75,156.902,320.834,156.902,320.901,156.902z"/>
			<path fill-rule="evenodd" clip-rule="evenodd" fill="#FFFFFF" d="M320.248,157.449c-0.061,0.042-0.131,0.096-0.19,0.137
				c0.022,0.077,0.046,0.149,0.069,0.223c-0.072-0.047-0.125-0.086-0.195-0.139c-0.062,0.038-0.123,0.076-0.192,0.119
				c0.027-0.088,0.048-0.147,0.067-0.221c-0.06-0.05-0.114-0.107-0.18-0.16c0.047,0.004,0.068,0.005,0.111,0.008
				c0.037,0.002,0.076,0.008,0.119,0.01c0.023-0.07,0.043-0.123,0.07-0.207c0.026,0.078,0.053,0.143,0.082,0.218
				C320.096,157.442,320.178,157.446,320.248,157.449z"/>
			<path fill-rule="evenodd" clip-rule="evenodd" fill="#FFFFFF" d="M321.553,157.438c-0.06,0.048-0.128,0.109-0.189,0.157
				c0.023,0.073,0.045,0.145,0.068,0.215c-0.068-0.041-0.123-0.073-0.195-0.12c-0.061,0.045-0.121,0.091-0.19,0.14
				c0.028-0.09,0.046-0.152,0.066-0.229c-0.058-0.043-0.115-0.094-0.179-0.141c0.047-0.002,0.068-0.002,0.111-0.002
				c0.038-0.003,0.076-0.002,0.117-0.004c0.024-0.073,0.043-0.129,0.071-0.213c0.029,0.073,0.054,0.136,0.081,0.208
				C321.4,157.446,321.484,157.442,321.553,157.438z"/>
			<path fill-rule="evenodd" clip-rule="evenodd" fill="#FFFFFF" d="M323.52,156.649c-0.062,0.056-0.13,0.122-0.191,0.177
				c0.023,0.07,0.047,0.14,0.07,0.208c-0.071-0.034-0.123-0.062-0.197-0.097c-0.061,0.049-0.121,0.102-0.189,0.16
				c0.027-0.094,0.046-0.158,0.066-0.236c-0.059-0.035-0.115-0.082-0.18-0.121c0.047-0.007,0.068-0.009,0.112-0.016
				c0.038-0.008,0.075-0.011,0.116-0.018c0.025-0.075,0.043-0.131,0.071-0.221c0.029,0.07,0.054,0.131,0.081,0.199
				C323.367,156.674,323.451,156.66,323.52,156.649z"/>
			<path fill-rule="evenodd" clip-rule="evenodd" fill="#FFFFFF" d="M322.865,157.301c-0.061,0.053-0.131,0.118-0.191,0.17
				c0.023,0.073,0.047,0.143,0.07,0.211c-0.07-0.035-0.124-0.063-0.197-0.104c-0.06,0.05-0.121,0.099-0.19,0.154
				c0.028-0.092,0.048-0.156,0.067-0.234c-0.06-0.037-0.115-0.085-0.18-0.125c0.047-0.006,0.07-0.008,0.112-0.012
				c0.038-0.006,0.075-0.01,0.116-0.015c0.024-0.074,0.044-0.131,0.07-0.22c0.031,0.072,0.054,0.133,0.084,0.203
				C322.713,157.32,322.797,157.31,322.865,157.301z"/>
			<path fill-rule="evenodd" clip-rule="evenodd" fill="#FFFFFF" d="M324.172,157.099c-0.062,0.055-0.13,0.122-0.191,0.18
				c0.023,0.07,0.047,0.138,0.068,0.206c-0.07-0.032-0.123-0.057-0.194-0.093c-0.06,0.052-0.123,0.105-0.192,0.165
				c0.027-0.094,0.049-0.159,0.068-0.238c-0.061-0.035-0.115-0.076-0.18-0.115c0.047-0.008,0.068-0.011,0.111-0.018
				c0.037-0.009,0.076-0.014,0.116-0.021c0.024-0.077,0.044-0.134,0.072-0.224c0.028,0.07,0.053,0.13,0.083,0.197
				C324.02,157.125,324.102,157.11,324.172,157.099z"/>
			<path fill-rule="evenodd" clip-rule="evenodd" fill="#FFFFFF" d="M323.52,155.551c-0.062,0.055-0.13,0.123-0.191,0.178
				c0.023,0.07,0.047,0.139,0.07,0.208c-0.071-0.033-0.123-0.061-0.197-0.099c-0.061,0.051-0.121,0.104-0.189,0.162
				c0.027-0.096,0.046-0.158,0.066-0.236c-0.059-0.037-0.115-0.081-0.18-0.121c0.047-0.006,0.068-0.01,0.112-0.016
				c0.038-0.008,0.075-0.011,0.116-0.017c0.025-0.076,0.043-0.133,0.071-0.223c0.029,0.071,0.054,0.132,0.081,0.2
				C323.367,155.576,323.451,155.562,323.52,155.551z"/>
			<path fill-rule="evenodd" clip-rule="evenodd" fill="#FFFFFF" d="M322.865,156.203c-0.061,0.053-0.131,0.118-0.191,0.171
				c0.023,0.072,0.047,0.141,0.07,0.209c-0.07-0.034-0.124-0.062-0.197-0.104c-0.06,0.049-0.121,0.1-0.19,0.154
				c0.028-0.092,0.048-0.155,0.067-0.233c-0.06-0.037-0.115-0.084-0.18-0.126c0.047-0.005,0.07-0.007,0.112-0.012
				c0.038-0.006,0.075-0.009,0.116-0.013c0.024-0.075,0.044-0.132,0.07-0.22c0.031,0.071,0.054,0.132,0.084,0.202
				C322.713,156.223,322.797,156.213,322.865,156.203z"/>
			<path fill-rule="evenodd" clip-rule="evenodd" fill="#FFFFFF" d="M324.172,156c-0.062,0.055-0.13,0.124-0.191,0.181
				c0.023,0.07,0.047,0.138,0.068,0.206c-0.07-0.032-0.123-0.058-0.194-0.094c-0.06,0.053-0.123,0.106-0.192,0.167
				c0.027-0.096,0.049-0.159,0.068-0.239c-0.061-0.035-0.115-0.076-0.18-0.115c0.047-0.008,0.068-0.012,0.111-0.02
				c0.037-0.006,0.076-0.012,0.116-0.018c0.024-0.077,0.044-0.135,0.072-0.225c0.028,0.069,0.053,0.129,0.083,0.197
				C324.02,156.027,324.102,156.012,324.172,156z"/>
			<path fill-rule="evenodd" clip-rule="evenodd" fill="#FFFFFF" d="M323.52,153.336c-0.062,0.054-0.13,0.121-0.191,0.178
				c0.023,0.069,0.047,0.139,0.07,0.207c-0.071-0.033-0.123-0.06-0.197-0.099c-0.061,0.052-0.121,0.104-0.189,0.161
				c0.027-0.094,0.046-0.158,0.066-0.235c-0.059-0.035-0.115-0.081-0.18-0.12c0.047-0.006,0.068-0.011,0.112-0.016
				c0.038-0.008,0.075-0.012,0.116-0.018c0.025-0.076,0.043-0.133,0.071-0.223c0.029,0.072,0.054,0.133,0.081,0.201
				C323.367,153.361,323.451,153.348,323.52,153.336z"/>
			<path fill-rule="evenodd" clip-rule="evenodd" fill="#FFFFFF" d="M322.865,153.987c-0.061,0.053-0.131,0.118-0.191,0.171
				c0.023,0.072,0.047,0.141,0.07,0.211c-0.07-0.036-0.124-0.064-0.197-0.104c-0.06,0.049-0.121,0.099-0.19,0.154
				c0.028-0.093,0.048-0.155,0.067-0.233c-0.06-0.038-0.115-0.085-0.18-0.126c0.047-0.005,0.07-0.007,0.112-0.013
				c0.038-0.006,0.075-0.008,0.116-0.013c0.024-0.075,0.044-0.132,0.07-0.22c0.031,0.072,0.054,0.133,0.084,0.203
				C322.713,154.008,322.797,153.996,322.865,153.987z"/>
			<path fill-rule="evenodd" clip-rule="evenodd" fill="#FFFFFF" d="M324.172,153.783c-0.062,0.057-0.13,0.125-0.191,0.182
				c0.023,0.07,0.047,0.139,0.068,0.206c-0.07-0.032-0.123-0.057-0.194-0.093c-0.06,0.053-0.123,0.105-0.192,0.166
				c0.027-0.095,0.049-0.159,0.068-0.239c-0.061-0.033-0.115-0.077-0.18-0.114c0.047-0.009,0.068-0.012,0.111-0.019
				c0.037-0.007,0.076-0.013,0.116-0.021c0.024-0.076,0.044-0.133,0.072-0.225c0.028,0.072,0.053,0.131,0.083,0.199
				C324.02,153.812,324.102,153.797,324.172,153.783z"/>
			<path fill-rule="evenodd" clip-rule="evenodd" fill="#FFFFFF" d="M320.254,155.227c-0.059,0.042-0.128,0.096-0.189,0.139
				c0.023,0.075,0.047,0.148,0.068,0.221c-0.068-0.048-0.123-0.086-0.194-0.139c-0.06,0.039-0.124,0.077-0.191,0.119
				c0.026-0.087,0.046-0.146,0.067-0.221c-0.06-0.049-0.114-0.106-0.181-0.16c0.048,0.003,0.068,0.006,0.112,0.009
				c0.039,0.001,0.076,0.006,0.116,0.009c0.024-0.07,0.044-0.123,0.071-0.206c0.029,0.076,0.054,0.142,0.084,0.218
				C320.102,155.221,320.186,155.225,320.254,155.227z"/>
			<path fill-rule="evenodd" clip-rule="evenodd" fill="#FFFFFF" d="M319.607,154.643c-0.06,0.039-0.129,0.089-0.191,0.127
				c0.024,0.078,0.047,0.152,0.071,0.226c-0.071-0.052-0.124-0.092-0.196-0.148c-0.062,0.034-0.121,0.069-0.191,0.106
				c0.028-0.085,0.047-0.144,0.068-0.217c-0.06-0.053-0.116-0.113-0.18-0.172c0.045,0.008,0.068,0.011,0.111,0.018
				c0.037,0.003,0.076,0.01,0.115,0.015c0.026-0.068,0.045-0.12,0.072-0.202c0.03,0.08,0.054,0.146,0.082,0.223
				C319.455,154.628,319.539,154.637,319.607,154.643z"/>
			<path fill-rule="evenodd" clip-rule="evenodd" fill="#FFFFFF" d="M324.164,154.893c-0.058,0.056-0.128,0.125-0.188,0.181
				c0.022,0.071,0.047,0.139,0.068,0.206c-0.068-0.031-0.123-0.057-0.194-0.092c-0.061,0.052-0.122,0.105-0.191,0.165
				c0.027-0.095,0.047-0.159,0.066-0.238c-0.059-0.035-0.114-0.077-0.178-0.114c0.045-0.01,0.066-0.012,0.111-0.02
				c0.036-0.008,0.076-0.013,0.115-0.02c0.024-0.077,0.044-0.135,0.07-0.225c0.031,0.07,0.055,0.13,0.085,0.198
				C324.014,154.92,324.097,154.906,324.164,154.893z"/>
			<path fill-rule="evenodd" clip-rule="evenodd" fill="#FFFFFF" d="M323.52,154.464c-0.062,0.054-0.13,0.121-0.191,0.177
				c0.023,0.07,0.047,0.14,0.07,0.207c-0.071-0.033-0.123-0.061-0.197-0.098c-0.061,0.052-0.121,0.102-0.189,0.16
				c0.027-0.094,0.046-0.158,0.066-0.235c-0.059-0.036-0.115-0.081-0.18-0.12c0.047-0.007,0.068-0.01,0.112-0.016
				c0.038-0.008,0.075-0.011,0.116-0.018c0.025-0.074,0.043-0.133,0.071-0.222c0.029,0.071,0.054,0.131,0.082,0.2
				C323.367,154.486,323.451,154.475,323.52,154.464z"/>
			<path fill-rule="evenodd" clip-rule="evenodd" fill="#FFFFFF" d="M322.225,155.72c-0.06,0.051-0.129,0.114-0.191,0.165
				c0.023,0.072,0.047,0.143,0.07,0.212c-0.07-0.038-0.124-0.067-0.194-0.111c-0.062,0.048-0.123,0.096-0.192,0.149
				c0.027-0.093,0.048-0.156,0.068-0.232c-0.061-0.04-0.115-0.09-0.18-0.133c0.046-0.004,0.068-0.005,0.111-0.008
				c0.037-0.004,0.076-0.006,0.117-0.009c0.023-0.075,0.043-0.13,0.07-0.216c0.029,0.072,0.055,0.134,0.084,0.205
				C322.072,155.734,322.156,155.727,322.225,155.72z"/>
			<path fill-rule="evenodd" clip-rule="evenodd" fill="#FFFFFF" d="M322.215,156.838c-0.061,0.051-0.129,0.114-0.19,0.166
				c0.022,0.072,0.048,0.142,0.07,0.211c-0.071-0.038-0.124-0.067-0.197-0.111c-0.06,0.049-0.12,0.096-0.19,0.148
				c0.029-0.093,0.047-0.153,0.068-0.232c-0.061-0.039-0.116-0.088-0.18-0.133c0.045-0.004,0.069-0.004,0.111-0.006
				c0.037-0.006,0.076-0.006,0.116-0.009c0.024-0.075,0.044-0.131,0.072-0.218c0.028,0.073,0.052,0.134,0.082,0.206
				C322.062,156.852,322.146,156.845,322.215,156.838z"/>
			<path fill-rule="evenodd" clip-rule="evenodd" fill="#FFFFFF" d="M319.607,155.731c-0.06,0.039-0.129,0.089-0.191,0.127
				c0.024,0.077,0.047,0.151,0.071,0.226c-0.071-0.052-0.124-0.093-0.196-0.15c-0.062,0.035-0.121,0.069-0.191,0.108
				c0.028-0.086,0.047-0.145,0.068-0.218c-0.06-0.053-0.116-0.114-0.18-0.172c0.045,0.007,0.068,0.012,0.111,0.018
				c0.037,0.004,0.076,0.01,0.115,0.016c0.026-0.069,0.045-0.121,0.072-0.203c0.03,0.078,0.054,0.146,0.082,0.223
				C319.455,155.716,319.539,155.725,319.607,155.731z"/>
			<path fill-rule="evenodd" clip-rule="evenodd" fill="#FFFFFF" d="M319.598,156.848c-0.061,0.039-0.13,0.09-0.188,0.127
				c0.021,0.077,0.044,0.151,0.067,0.226c-0.069-0.052-0.123-0.091-0.195-0.149c-0.061,0.035-0.121,0.069-0.189,0.107
				c0.025-0.086,0.045-0.145,0.065-0.219c-0.06-0.052-0.114-0.112-0.179-0.171c0.045,0.007,0.068,0.011,0.11,0.017
				c0.039,0.004,0.075,0.012,0.118,0.016c0.022-0.067,0.043-0.119,0.07-0.201c0.03,0.079,0.053,0.146,0.083,0.223
				C319.445,156.833,319.528,156.841,319.598,156.848z"/>
			<path fill-rule="evenodd" clip-rule="evenodd" fill="#FFFFFF" d="M320.266,154.119c-0.062,0.041-0.131,0.097-0.191,0.139
				c0.023,0.076,0.046,0.148,0.069,0.221c-0.07-0.048-0.124-0.084-0.196-0.137c-0.06,0.037-0.121,0.076-0.189,0.117
				c0.027-0.087,0.047-0.146,0.066-0.221c-0.059-0.049-0.115-0.106-0.18-0.16c0.047,0.005,0.068,0.007,0.111,0.009
				c0.039,0.001,0.074,0.007,0.117,0.01c0.023-0.07,0.043-0.124,0.07-0.206c0.029,0.076,0.053,0.142,0.083,0.217
				C320.113,154.113,320.195,154.116,320.266,154.119z"/>
			<path fill-rule="evenodd" clip-rule="evenodd" fill="#FFFFFF" d="M322.872,152.863c-0.061,0.052-0.13,0.117-0.191,0.17
				c0.024,0.072,0.048,0.142,0.069,0.21c-0.07-0.035-0.123-0.063-0.195-0.104c-0.06,0.05-0.121,0.1-0.191,0.156
				c0.027-0.094,0.048-0.157,0.068-0.236c-0.059-0.037-0.115-0.083-0.18-0.125c0.047-0.004,0.069-0.006,0.111-0.012
				c0.039-0.006,0.074-0.008,0.117-0.013c0.025-0.075,0.045-0.132,0.07-0.22c0.029,0.072,0.053,0.133,0.084,0.202
				C322.721,152.882,322.803,152.871,322.872,152.863z"/>
			<path fill-rule="evenodd" clip-rule="evenodd" fill="#FFFFFF" d="M324.176,152.665c-0.061,0.056-0.13,0.126-0.191,0.181
				c0.024,0.072,0.047,0.14,0.07,0.206c-0.071-0.03-0.125-0.056-0.194-0.093c-0.062,0.053-0.124,0.105-0.192,0.166
				c0.026-0.094,0.047-0.158,0.067-0.238c-0.058-0.034-0.116-0.077-0.18-0.115c0.047-0.007,0.068-0.012,0.112-0.019
				c0.036-0.007,0.074-0.013,0.117-0.019c0.022-0.076,0.043-0.136,0.07-0.225c0.028,0.07,0.052,0.129,0.082,0.197
				C324.023,152.693,324.107,152.679,324.176,152.665z"/>
		</g>
		<rect x="315.884" y="150.337" fill-rule="evenodd" clip-rule="evenodd" fill="#D0D2D3" width="0.99" height="32.467"/>
		<circle fill-rule="evenodd" clip-rule="evenodd" fill="#D0D2D3" cx="316.379" cy="150.039" r="1.485"/>
	</g>
</g>
</svg>
