<?xml version="1.0" encoding="utf-8"?>
<!-- Generator: Adobe Illustrator 16.0.0, SVG Export Plug-In . SVG Version: 6.00 Build 0)  -->
<!DOCTYPE svg PUBLIC "-//W3C//DTD SVG 1.1//EN" "http://www.w3.org/Graphics/SVG/1.1/DTD/svg11.dtd">
<svg version="1.1" id="Layer_1" xmlns="http://www.w3.org/2000/svg" xmlns:xlink="http://www.w3.org/1999/xlink" x="0px" y="0px"
	 width="251.988px" height="145.493px" viewBox="0 0 251.988 145.493" enable-background="new 0 0 251.988 145.493"
	 xml:space="preserve">
<path fill="#FFFFFF" d="M69.25,45.708c0,0,3.074-35.177,40.05-36.411c33.554-1.119,41.671,22.406,41.671,22.406
	s24.355-12.322,41.672,3.922c17.318,16.244,12.448,32.489,12.448,32.489s24.896-4.48,37.884,13.445
	c12.987,17.924,1.38,44.822-18.644,44.262c0,0-9.391,15.161-31.366,2.075c0,0-5.136,8.042-38.496,8.968
	c-27.982,0.777-41.132-8.579-41.132-8.579s-8.399,11.697-30.048,7.776c-21.647-3.922-28.17-11.663-28.17-11.663
	s-31.327,18.218-45.94-9.231c-13.482-25.324,7.037-56.575,28.684-52.093C37.862,63.074,42.19,38.985,69.25,45.708z"/>
</svg>
