<?xml version="1.0" encoding="utf-8"?>
<!-- Generator: Adobe Illustrator 16.0.0, SVG Export Plug-In . SVG Version: 6.00 Build 0)  -->
<!DOCTYPE svg PUBLIC "-//W3C//DTD SVG 1.1//EN" "http://www.w3.org/Graphics/SVG/1.1/DTD/svg11.dtd">
<svg version="1.1" id="Layer_1" xmlns="http://www.w3.org/2000/svg" xmlns:xlink="http://www.w3.org/1999/xlink" x="0px" y="0px"
	 width="305.498px" height="175.021px" viewBox="0 0 305.498 175.021" enable-background="new 0 0 305.498 175.021"
	 xml:space="preserve">
<radialGradient id="SVGID_1_" cx="152.7485" cy="87.5112" r="124.4797" gradientUnits="userSpaceOnUse">
	<stop  offset="0" style="stop-color:#FFFFFF"/>
	<stop  offset="1" style="stop-color:#FFFFFF"/>
</radialGradient>
<path fill="url(#SVGID_1_)" d="M300.358,102.107c-13.557,18.075-39.544,13.557-39.544,13.557s5.084,16.384-12.994,32.763
	c-18.078,16.387-43.5,3.959-43.5,3.959s-8.475,23.727-43.497,22.598c-23.238-0.752-33.645-13.904-38.251-24.258
	c-4.326,1.686-9.676,3.123-16.308,4.104c-34.463,5.088-45.193-23.162-45.193-23.162c-24.859,8.478-33.331-9.601-33.331-9.601
	C6.835,122.631-8.418,90.995,5.14,72.917c13.558-18.078,39.546-13.56,39.546-13.56s-5.085-16.382,12.993-32.766
	c18.077-16.382,43.499-3.955,43.499-3.955s8.475-23.725,43.499-22.597c23.237,0.748,33.645,13.903,38.249,24.257
	c4.325-1.687,9.677-3.128,16.31-4.106c34.46-5.083,45.194,23.163,45.194,23.163c24.856-8.474,33.331,9.605,33.331,9.605
	C298.662,52.39,313.915,84.028,300.358,102.107z"/>
</svg>
