<?xml version="1.0" encoding="utf-8"?>
<!-- Generator: Adobe Illustrator 16.0.0, SVG Export Plug-In . SVG Version: 6.00 Build 0)  -->
<!DOCTYPE svg PUBLIC "-//W3C//DTD SVG 1.1//EN" "http://www.w3.org/Graphics/SVG/1.1/DTD/svg11.dtd">
<svg version="1.1" id="Layer_1" xmlns="http://www.w3.org/2000/svg" xmlns:xlink="http://www.w3.org/1999/xlink" x="0px" y="0px"
	 width="243.982px" height="164.661px" viewBox="0 0 243.982 164.661" enable-background="new 0 0 243.982 164.661"
	 xml:space="preserve">
<g>
	<rect x="36.561" y="45.503" fill="#F1F1F2" width="171.153" height="76.539"/>
	<rect x="94.006" y="48.609" fill="#58595B" width="56.5" height="76.38"/>
	<g>
		<rect x="52.315" y="45.503" fill="#D0D2D3" width="8.497" height="77.336"/>
		<rect x="71.19" y="45.503" fill="#D0D2D3" width="8.497" height="77.336"/>
		<rect x="89.869" y="45.503" fill="#D0D2D3" width="8.498" height="77.336"/>
		<rect x="108.206" y="45.503" fill="#D0D2D3" width="8.496" height="77.336"/>
		<rect x="127.592" y="45.503" fill="#D0D2D3" width="8.498" height="77.336"/>
		<rect x="146.368" y="45.503" fill="#D0D2D3" width="8.497" height="77.336"/>
		<rect x="165.048" y="45.503" fill="#D0D2D3" width="8.495" height="77.336"/>
		<rect x="183.698" y="45.503" fill="#D0D2D3" width="8.497" height="77.336"/>
		<rect x="15.023" y="45.503" fill="#D0D2D3" width="8.498" height="77.336"/>
		<rect x="32.312" y="45.503" fill="#D0D2D3" width="8.496" height="77.336"/>
		<rect x="203.465" y="45.503" fill="#D0D2D3" width="8.497" height="77.336"/>
		<rect x="220.754" y="45.503" fill="#D0D2D3" width="8.495" height="77.336"/>
	</g>
	<rect x="24.664" y="17.611" fill="#E6E7E8" width="189.366" height="15.715"/>
	<rect x="24.664" y="7.163" fill="#D0D2D3" width="189.366" height="10.998"/>
	<rect x="8.795" y="32.567" fill="#D0D2D3" width="226.393" height="5.204"/>
	<rect x="12.498" y="37.771" fill="#E6E7E8" width="219.517" height="12.92"/>
	<rect x="9.033" y="131.733" fill="#E6E7E8" width="226.445" height="7.694"/>
	<rect x="12.498" y="126.973" fill="#E6E7E8" width="219.517" height="5.711"/>
	<rect x="14.23" y="122.135" fill="#E6E7E8" width="215.813" height="5.71"/>
	<rect y="137.162" fill="#D0D2D3" width="243.982" height="27.499"/>
	<rect x="78.625" y="135.581" fill="#E6E7E8" width="87.484" height="29.08"/>
	<g>
		<rect x="70.007" y="136.462" fill="#BBBDBF" width="10.864" height="28.199"/>
		<rect x="72.252" y="127.357" fill="#BBBDBF" width="6.373" height="9.805"/>
		<path fill="#BBBDBF" d="M80.871,127.425c0,1.159-1.065,2.099-2.381,2.099h-6.103c-1.315,0-2.381-0.939-2.381-2.099v-0.134
			c0-1.159,1.065-2.1,2.381-2.1h6.103c1.315,0,2.381,0.94,2.381,2.1V127.425z"/>
	</g>
	<g>
		<rect x="163.864" y="136.462" fill="#BBBDBF" width="10.863" height="28.199"/>
		<rect x="166.109" y="127.357" fill="#BBBDBF" width="6.373" height="9.805"/>
		<path fill="#BBBDBF" d="M174.728,127.425c0,1.159-1.065,2.099-2.381,2.099h-6.103c-1.315,0-2.38-0.939-2.38-2.099v-0.134
			c0-1.159,1.064-2.1,2.38-2.1h6.103c1.315,0,2.381,0.94,2.381,2.1V127.425z"/>
	</g>
	<rect x="24.664" y="4.388" fill="#E6E7E8" width="189.366" height="3.677"/>
	<g>
		<rect x="87.161" y="50.333" fill="#E6E7E8" width="13.914" height="2.762"/>
		<rect x="88.413" y="51.714" fill="#E6E7E8" width="11.409" height="3.05"/>
		<rect x="105.498" y="50.333" fill="#E6E7E8" width="13.914" height="2.762"/>
		<rect x="106.75" y="51.714" fill="#E6E7E8" width="11.408" height="3.05"/>
		<rect x="68.482" y="50.333" fill="#E6E7E8" width="13.913" height="2.762"/>
		<rect x="69.732" y="51.714" fill="#E6E7E8" width="11.411" height="3.05"/>
		<rect x="49.607" y="50.333" fill="#E6E7E8" width="13.914" height="2.762"/>
		<rect x="50.859" y="51.714" fill="#E6E7E8" width="11.409" height="3.05"/>
		<rect x="29.604" y="50.333" fill="#E6E7E8" width="13.914" height="2.762"/>
		<rect x="30.856" y="51.714" fill="#E6E7E8" width="11.409" height="3.05"/>
		<rect x="12.498" y="50.333" fill="#E6E7E8" width="13.914" height="2.762"/>
		<rect x="13.748" y="51.714" fill="#E6E7E8" width="11.41" height="3.05"/>
		<rect x="200.757" y="50.333" fill="#E6E7E8" width="13.914" height="2.762"/>
		<rect x="202.009" y="51.714" fill="#E6E7E8" width="11.409" height="3.05"/>
		<rect x="218.1" y="50.333" fill="#E6E7E8" width="13.915" height="2.762"/>
		<rect x="219.352" y="51.714" fill="#E6E7E8" width="11.41" height="3.05"/>
		<rect x="181.083" y="50.333" fill="#E6E7E8" width="13.915" height="2.762"/>
		<rect x="182.336" y="51.714" fill="#E6E7E8" width="11.409" height="3.05"/>
		<rect x="162.338" y="50.333" fill="#E6E7E8" width="13.915" height="2.762"/>
		<rect x="163.591" y="51.714" fill="#E6E7E8" width="11.409" height="3.05"/>
		<rect x="143.549" y="50.333" fill="#E6E7E8" width="13.915" height="2.762"/>
		<rect x="144.801" y="51.714" fill="#E6E7E8" width="11.409" height="3.05"/>
		<rect x="124.918" y="50.333" fill="#E6E7E8" width="13.914" height="2.762"/>
		<rect x="126.17" y="51.714" fill="#E6E7E8" width="11.409" height="3.05"/>
	</g>
</g>
</svg>
