<?xml version="1.0" encoding="utf-8"?>
<!-- Generator: Adobe Illustrator 16.0.0, SVG Export Plug-In . SVG Version: 6.00 Build 0)  -->
<!DOCTYPE svg PUBLIC "-//W3C//DTD SVG 1.1//EN" "http://www.w3.org/Graphics/SVG/1.1/DTD/svg11.dtd">
<svg version="1.1" id="Layer_1" xmlns="http://www.w3.org/2000/svg" xmlns:xlink="http://www.w3.org/1999/xlink" x="0px" y="0px"
	 width="463px" height="215.592px" viewBox="0 0 463 215.592" enable-background="new 0 0 463 215.592" xml:space="preserve">
<g>
	<rect x="157.687" y="51.731" fill="#EBECEC" width="160.271" height="24.636"/>
	<g>
		<rect x="346.976" y="52.689" fill="#EBECEC" width="11.887" height="20.348"/>
		<rect x="344.412" y="49.295" fill="#EBECEC" width="17.014" height="4.87"/>
	</g>
	<g>
		<rect x="116.599" y="52.186" fill="#EBECEC" width="11.886" height="20.347"/>
		<rect x="114.035" y="48.791" fill="#EBECEC" width="17.014" height="4.869"/>
	</g>
	<rect x="33.201" y="64.932" fill="#EBECEC" width="409.171" height="150.66"/>
	<g>
		<rect x="162.523" y="114.046" fill="#D0D2D3" width="9.254" height="96.929"/>
		<rect x="207.812" y="114.046" fill="#D0D2D3" width="9.252" height="96.929"/>
		<rect x="258.812" y="114.046" fill="#D0D2D3" width="9.253" height="96.929"/>
		<rect x="303.857" y="114.046" fill="#D0D2D3" width="9.251" height="96.929"/>
		<g>
			<path fill="#D0D2D3" d="M174.394,115.005v-0.277h-0.662c-0.204-0.055-0.416-0.083-0.632-0.083s-0.428,0.028-0.633,0.083h-10.631
				c-0.205-0.055-0.418-0.083-0.635-0.083s-0.426,0.028-0.631,0.083h-0.661v0.277c-1.066,0.622-1.81,1.987-1.81,3.571
				c0,2.172,1.39,3.932,3.102,3.932c1.56,0,2.849-1.458,3.068-3.357h5.763c0.22,1.899,1.509,3.357,3.067,3.357
				c1.713,0,3.103-1.76,3.103-3.932C176.202,116.992,175.459,115.627,174.394,115.005z"/>
		</g>
		<g>
			<path fill="#D0D2D3" d="M219.68,115.005v-0.277h-0.661c-0.205-0.055-0.415-0.083-0.635-0.083c-0.214,0-0.425,0.028-0.629,0.083
				H207.12c-0.204-0.055-0.413-0.083-0.632-0.083c-0.216,0-0.427,0.028-0.632,0.083h-0.659v0.277
				c-1.07,0.622-1.812,1.987-1.812,3.571c0,2.172,1.39,3.932,3.103,3.932c1.56,0,2.848-1.458,3.067-3.357h5.762
				c0.221,1.899,1.51,3.357,3.066,3.357c1.715,0,3.105-1.76,3.105-3.932C221.489,116.992,220.748,115.627,219.68,115.005z"/>
		</g>
		<g>
			<path fill="#D0D2D3" d="M270.683,115.005v-0.277h-0.663c-0.202-0.055-0.414-0.083-0.631-0.083c-0.216,0-0.428,0.028-0.633,0.083
				h-10.632c-0.204-0.055-0.417-0.083-0.632-0.083c-0.217,0-0.428,0.028-0.633,0.083h-0.661v0.277
				c-1.067,0.622-1.812,1.987-1.812,3.571c0,2.172,1.392,3.932,3.105,3.932c1.558,0,2.847-1.458,3.065-3.357h5.764
				c0.22,1.899,1.508,3.357,3.067,3.357c1.713,0,3.104-1.76,3.104-3.932C272.493,116.992,271.749,115.627,270.683,115.005z"/>
		</g>
		<g>
			<path fill="#D0D2D3" d="M315.725,115.005v-0.277h-0.661c-0.205-0.055-0.416-0.083-0.63-0.083c-0.219,0-0.43,0.028-0.633,0.083
				h-10.634c-0.202-0.055-0.416-0.083-0.632-0.083c-0.217,0-0.429,0.028-0.632,0.083h-0.662v0.277
				c-1.066,0.622-1.809,1.987-1.809,3.571c0,2.172,1.388,3.932,3.103,3.932c1.56,0,2.848-1.458,3.066-3.357h5.763
				c0.22,1.899,1.508,3.357,3.069,3.357c1.711,0,3.102-1.76,3.102-3.932C317.535,116.992,316.792,115.627,315.725,115.005z"/>
		</g>
		<rect x="160.886" y="198.088" fill="#D0D2D3" width="12.479" height="17.504"/>
		<rect x="206.2" y="198.088" fill="#D0D2D3" width="12.476" height="17.504"/>
		<rect x="257.199" y="198.088" fill="#D0D2D3" width="12.479" height="17.504"/>
		<rect x="302.463" y="198.088" fill="#D0D2D3" width="12.479" height="17.504"/>
	</g>
	<g>
		<g>
			<rect x="37.331" y="68.768" fill="#989898" width="2.237" height="10.252"/>
			<rect x="40.73" y="68.768" fill="#989898" width="2.235" height="10.252"/>
			<rect x="44.45" y="68.768" fill="#989898" width="2.237" height="10.252"/>
			<rect x="47.92" y="68.768" fill="#989898" width="2.235" height="10.252"/>
			<rect x="51.497" y="68.768" fill="#989898" width="2.237" height="10.252"/>
			<rect x="55.076" y="68.768" fill="#989898" width="2.235" height="10.252"/>
			<rect x="58.729" y="68.768" fill="#989898" width="2.236" height="10.252"/>
		</g>
		<g>
			<rect x="73.889" y="68.768" fill="#989898" width="2.236" height="10.252"/>
			<rect x="77.287" y="68.768" fill="#989898" width="2.236" height="10.252"/>
			<rect x="81.008" y="68.768" fill="#989898" width="2.236" height="10.252"/>
			<rect x="84.477" y="68.768" fill="#989898" width="2.236" height="10.252"/>
			<rect x="88.055" y="68.768" fill="#989898" width="2.236" height="10.252"/>
			<rect x="91.633" y="68.768" fill="#989898" width="2.236" height="10.252"/>
			<rect x="95.286" y="68.768" fill="#989898" width="2.235" height="10.252"/>
		</g>
		<g>
			<rect x="110.834" y="68.768" fill="#989898" width="2.237" height="10.252"/>
			<rect x="114.234" y="68.768" fill="#989898" width="2.236" height="10.252"/>
			<rect x="117.954" y="68.768" fill="#989898" width="2.236" height="10.252"/>
			<rect x="121.423" y="68.768" fill="#989898" width="2.237" height="10.252"/>
			<rect x="125.002" y="68.768" fill="#989898" width="2.236" height="10.252"/>
			<rect x="128.58" y="68.768" fill="#989898" width="2.236" height="10.252"/>
			<rect x="132.232" y="68.768" fill="#989898" width="2.236" height="10.252"/>
		</g>
		<g>
			<rect x="145.869" y="68.768" fill="#989898" width="2.236" height="10.252"/>
			<rect x="149.269" y="68.768" fill="#989898" width="2.235" height="10.252"/>
			<rect x="152.988" y="68.768" fill="#989898" width="2.237" height="10.252"/>
			<rect x="156.458" y="68.768" fill="#989898" width="2.235" height="10.252"/>
			<rect x="160.035" y="68.768" fill="#989898" width="2.237" height="10.252"/>
			<rect x="163.614" y="68.768" fill="#989898" width="2.235" height="10.252"/>
			<rect x="167.268" y="68.768" fill="#989898" width="2.236" height="10.252"/>
		</g>
		<g>
			<rect x="306.499" y="69.358" fill="#989898" width="2.237" height="10.253"/>
			<rect x="309.898" y="69.358" fill="#989898" width="2.236" height="10.253"/>
			<rect x="313.618" y="69.358" fill="#989898" width="2.237" height="10.253"/>
			<rect x="317.088" y="69.358" fill="#989898" width="2.236" height="10.253"/>
			<rect x="320.665" y="69.358" fill="#989898" width="2.237" height="10.253"/>
			<rect x="324.244" y="69.358" fill="#989898" width="2.237" height="10.253"/>
			<rect x="327.896" y="69.358" fill="#989898" width="2.237" height="10.253"/>
		</g>
		<g>
			<rect x="343.057" y="69.358" fill="#989898" width="2.237" height="10.253"/>
			<rect x="346.456" y="69.358" fill="#989898" width="2.237" height="10.253"/>
			<rect x="350.176" y="69.358" fill="#989898" width="2.237" height="10.253"/>
			<rect x="353.646" y="69.358" fill="#989898" width="2.236" height="10.253"/>
			<rect x="357.223" y="69.358" fill="#989898" width="2.237" height="10.253"/>
			<rect x="360.802" y="69.358" fill="#989898" width="2.237" height="10.253"/>
			<rect x="364.455" y="69.358" fill="#989898" width="2.236" height="10.253"/>
		</g>
		<g>
			<rect x="380.004" y="69.358" fill="#989898" width="2.237" height="10.253"/>
			<rect x="383.403" y="69.358" fill="#989898" width="2.235" height="10.253"/>
			<rect x="387.123" y="69.358" fill="#989898" width="2.237" height="10.253"/>
			<rect x="390.593" y="69.358" fill="#989898" width="2.235" height="10.253"/>
			<rect x="394.17" y="69.358" fill="#989898" width="2.237" height="10.253"/>
			<rect x="397.749" y="69.358" fill="#989898" width="2.236" height="10.253"/>
			<rect x="401.401" y="69.358" fill="#989898" width="2.237" height="10.253"/>
		</g>
		<g>
			<rect x="415.037" y="69.358" fill="#989898" width="2.237" height="10.253"/>
			<rect x="418.437" y="69.358" fill="#989898" width="2.237" height="10.253"/>
			<rect x="422.157" y="69.358" fill="#989898" width="2.236" height="10.253"/>
			<rect x="425.626" y="69.358" fill="#989898" width="2.237" height="10.253"/>
			<rect x="429.205" y="69.358" fill="#989898" width="2.235" height="10.253"/>
			<rect x="432.783" y="69.358" fill="#989898" width="2.236" height="10.253"/>
			<rect x="436.436" y="69.358" fill="#989898" width="2.236" height="10.253"/>
		</g>
	</g>
	<rect x="228.027" y="176.775" fill="#676767" width="21.47" height="38.816"/>
	<path fill="#D0D2D3" d="M238.695,159.004c-7.202,0-12.979,7.047-12.979,11.999h26.092
		C251.808,166.051,245.904,159.004,238.695,159.004z"/>
	<g>
		<g>
			<rect x="290.526" y="116.812" fill="#676767" width="4.15" height="6.943"/>
			<rect x="285.475" y="116.812" fill="#676767" width="4.151" height="6.943"/>
			<rect x="280.467" y="116.812" fill="#676767" width="4.151" height="6.943"/>
			<rect x="290.59" y="124.484" fill="#676767" width="4.151" height="6.942"/>
			<rect x="285.54" y="124.484" fill="#676767" width="4.149" height="6.942"/>
			<rect x="280.467" y="124.484" fill="#676767" width="4.151" height="6.942"/>
			<rect x="290.592" y="132.165" fill="#676767" width="4.15" height="6.943"/>
			<rect x="285.541" y="132.165" fill="#676767" width="4.149" height="6.943"/>
			<rect x="280.467" y="132.165" fill="#676767" width="4.151" height="6.943"/>
			<rect x="290.526" y="139.832" fill="#676767" width="4.15" height="6.943"/>
			<rect x="285.475" y="139.832" fill="#676767" width="4.151" height="6.943"/>
			<rect x="280.467" y="139.832" fill="#676767" width="4.151" height="6.943"/>
		</g>
		<g>
			<rect x="241.685" y="116.974" fill="#676767" width="4.15" height="6.943"/>
			<rect x="236.634" y="116.974" fill="#676767" width="4.15" height="6.943"/>
			<rect x="231.626" y="116.974" fill="#676767" width="4.149" height="6.943"/>
			<rect x="241.749" y="124.646" fill="#676767" width="4.15" height="6.943"/>
			<rect x="236.698" y="124.646" fill="#676767" width="4.149" height="6.943"/>
			<rect x="231.626" y="124.646" fill="#676767" width="4.149" height="6.943"/>
			<rect x="241.75" y="132.328" fill="#676767" width="4.15" height="6.943"/>
			<rect x="236.698" y="132.328" fill="#676767" width="4.15" height="6.943"/>
			<rect x="231.626" y="132.328" fill="#676767" width="4.149" height="6.943"/>
			<rect x="241.685" y="139.995" fill="#676767" width="4.15" height="6.943"/>
			<rect x="236.634" y="139.995" fill="#676767" width="4.15" height="6.943"/>
			<rect x="231.626" y="139.995" fill="#676767" width="4.149" height="6.943"/>
		</g>
		<g>
			<rect x="192.969" y="117.179" fill="#676767" width="4.15" height="6.943"/>
			<rect x="187.918" y="117.179" fill="#676767" width="4.15" height="6.943"/>
			<rect x="182.909" y="117.179" fill="#676767" width="4.15" height="6.943"/>
			<rect x="193.032" y="124.851" fill="#676767" width="4.151" height="6.943"/>
			<rect x="187.982" y="124.851" fill="#676767" width="4.15" height="6.943"/>
			<rect x="182.909" y="124.851" fill="#676767" width="4.15" height="6.943"/>
			<rect x="193.033" y="132.533" fill="#676767" width="4.15" height="6.943"/>
			<rect x="187.983" y="132.533" fill="#676767" width="4.149" height="6.943"/>
			<rect x="182.909" y="132.533" fill="#676767" width="4.15" height="6.943"/>
			<rect x="192.969" y="140.2" fill="#676767" width="4.15" height="6.942"/>
			<rect x="187.918" y="140.2" fill="#676767" width="4.15" height="6.942"/>
			<rect x="182.909" y="140.2" fill="#676767" width="4.15" height="6.942"/>
		</g>
		<g>
			<rect x="192.903" y="170.185" fill="#676767" width="4.15" height="6.943"/>
			<rect x="187.852" y="170.185" fill="#676767" width="4.15" height="6.943"/>
			<rect x="182.844" y="170.185" fill="#676767" width="4.15" height="6.943"/>
			<rect x="192.967" y="177.856" fill="#676767" width="4.15" height="6.942"/>
			<rect x="187.917" y="177.856" fill="#676767" width="4.149" height="6.942"/>
			<rect x="182.844" y="177.856" fill="#676767" width="4.15" height="6.942"/>
			<rect x="192.969" y="185.537" fill="#676767" width="4.15" height="6.943"/>
			<rect x="187.918" y="185.537" fill="#676767" width="4.15" height="6.943"/>
			<rect x="182.844" y="185.537" fill="#676767" width="4.15" height="6.943"/>
			<rect x="192.903" y="193.204" fill="#676767" width="4.15" height="6.943"/>
			<rect x="187.852" y="193.204" fill="#676767" width="4.15" height="6.943"/>
			<rect x="182.844" y="193.204" fill="#676767" width="4.15" height="6.943"/>
		</g>
		<g>
			<rect x="290.461" y="171.381" fill="#676767" width="4.15" height="6.943"/>
			<rect x="285.41" y="171.381" fill="#676767" width="4.15" height="6.943"/>
			<rect x="280.402" y="171.381" fill="#676767" width="4.149" height="6.943"/>
			<rect x="290.525" y="179.052" fill="#676767" width="4.15" height="6.943"/>
			<rect x="285.475" y="179.052" fill="#676767" width="4.149" height="6.943"/>
			<rect x="280.402" y="179.052" fill="#676767" width="4.149" height="6.943"/>
			<rect x="290.526" y="186.733" fill="#676767" width="4.15" height="6.943"/>
			<rect x="285.475" y="186.733" fill="#676767" width="4.151" height="6.943"/>
			<rect x="280.402" y="186.733" fill="#676767" width="4.149" height="6.943"/>
			<rect x="290.461" y="194.4" fill="#676767" width="4.15" height="6.943"/>
			<rect x="285.41" y="194.4" fill="#676767" width="4.15" height="6.943"/>
			<rect x="280.402" y="194.4" fill="#676767" width="4.149" height="6.943"/>
		</g>
	</g>
	<g>
		
			<rect x="233.699" y="155.425" fill="#E6E7E8" stroke="#404041" stroke-width="0.4079" stroke-miterlimit="10" width="10.125" height="13.93"/>
		
			<rect x="235.593" y="155.434" fill="#E6E7E8" stroke="#404041" stroke-width="0.3841" stroke-miterlimit="10" width="6.411" height="13.921"/>
		<polygon fill="#E6E7E8" stroke="#404041" stroke-width="0.3815" stroke-miterlimit="10" points="243.618,155.427 233.91,155.426 
			238.764,148.2 		"/>
		<ellipse fill="#333333" cx="238.732" cy="147.863" rx="1.703" ry="1.45"/>
		<rect x="238.47" y="114.046" fill="#333333" width="0.479" height="32.365"/>
	</g>
	<g>
		<path fill-rule="evenodd" clip-rule="evenodd" fill="#FFFFFF" d="M262.729,23.406c-8.214-3.484-16.426,3.482-24.639,0.001
			c0-4.468,0-8.933,0-13.399c8.213,3.48,16.425-3.484,24.639-0.001C262.729,14.473,262.729,18.939,262.729,23.406z"/>
		<g>
			<path fill-rule="evenodd" clip-rule="evenodd" fill="#808080" d="M262.724,11.033c-8.211-3.479-16.423,3.482-24.634,0.002
				c0-0.342,0-0.685,0-1.027c8.211,3.48,16.423-3.482,24.634-0.004C262.724,10.347,262.724,10.69,262.724,11.033z"/>
			<path fill-rule="evenodd" clip-rule="evenodd" fill="#808080" d="M262.72,13.061c-8.21-3.477-16.421,3.484-24.632,0.002
				c0-0.343,0-0.686,0-1.027c8.211,3.482,16.422-3.481,24.632-0.005C262.72,12.375,262.72,12.717,262.72,13.061z"/>
			<path fill-rule="evenodd" clip-rule="evenodd" fill="#808080" d="M262.727,15.141c-8.212-3.48-16.424,3.482-24.633,0.004
				c0-0.342,0-0.685,0-1.028c8.209,3.478,16.421-3.483,24.633-0.003C262.727,14.455,262.727,14.799,262.727,15.141z"/>
			<path fill-rule="evenodd" clip-rule="evenodd" fill="#808080" d="M262.72,17.217c-8.21-3.476-16.421,3.486-24.632,0.004
				c0-0.344,0-0.687,0-1.029c8.211,3.484,16.422-3.479,24.632-0.004C262.72,16.53,262.72,16.873,262.72,17.217z"/>
			<path fill-rule="evenodd" clip-rule="evenodd" fill="#808080" d="M262.72,19.258c-8.21-3.477-16.421,3.486-24.632,0.004
				c0-0.343,0-0.686,0-1.029c8.211,3.482,16.422-3.479,24.632-0.003C262.72,18.572,262.72,18.916,262.72,19.258z"/>
			<path fill-rule="evenodd" clip-rule="evenodd" fill="#808080" d="M262.724,21.344c-8.211-3.479-16.423,3.482-24.634,0.003
				c0-0.343,0-0.685,0-1.027c8.211,3.479,16.423-3.483,24.634-0.003C262.724,20.659,262.724,21.002,262.724,21.344z"/>
			<path fill-rule="evenodd" clip-rule="evenodd" fill="#808080" d="M262.72,23.401c-8.21-3.477-16.421,3.485-24.632,0.003
				c0-0.344,0-0.686,0-1.027c8.211,3.482,16.422-3.479,24.632-0.003C262.72,22.717,262.72,23.059,262.72,23.401z"/>
		</g>
		<path fill-rule="evenodd" clip-rule="evenodd" fill="#808080" d="M238.09,10.008c3.337,1.414,6.676,1.104,10.014,0.471
			c0,2.395,0,4.789,0,7.184c-3.338,0.635-6.677,0.947-10.014-0.47C238.09,14.797,238.09,12.402,238.09,10.008z"/>
		<g>
			<path fill-rule="evenodd" clip-rule="evenodd" fill="#FFFFFF" d="M243.492,15.197c-0.077,0.06-0.166,0.132-0.245,0.189
				c0.032,0.096,0.06,0.188,0.091,0.281c-0.091-0.058-0.159-0.102-0.252-0.165c-0.077,0.054-0.156,0.107-0.245,0.167
				c0.035-0.115,0.06-0.193,0.087-0.29c-0.077-0.058-0.149-0.128-0.231-0.192c0.061,0.003,0.09,0.004,0.144,0.006
				c0.049-0.002,0.097,0.001,0.15,0.001c0.032-0.092,0.055-0.161,0.091-0.271c0.037,0.099,0.068,0.18,0.106,0.274
				C243.298,15.197,243.405,15.197,243.492,15.197z"/>
			<path fill-rule="evenodd" clip-rule="evenodd" fill="#FFFFFF" d="M242.653,15.9c-0.077,0.054-0.168,0.122-0.245,0.177
				c0.03,0.098,0.06,0.191,0.088,0.286c-0.089-0.063-0.158-0.11-0.252-0.18c-0.074,0.051-0.155,0.101-0.243,0.154
				c0.034-0.113,0.06-0.188,0.085-0.285c-0.075-0.062-0.146-0.137-0.23-0.206c0.061,0.006,0.089,0.009,0.146,0.013
				c0.047,0.002,0.097,0.008,0.148,0.012c0.032-0.091,0.057-0.16,0.091-0.267c0.039,0.1,0.07,0.183,0.106,0.28
				C242.456,15.891,242.563,15.897,242.653,15.9z"/>
			<path fill-rule="evenodd" clip-rule="evenodd" fill="#FFFFFF" d="M244.33,15.885c-0.077,0.062-0.167,0.141-0.244,0.201
				c0.029,0.096,0.059,0.187,0.088,0.277c-0.09-0.051-0.158-0.094-0.251-0.152c-0.077,0.057-0.157,0.114-0.245,0.178
				c0.035-0.116,0.061-0.195,0.086-0.293c-0.075-0.054-0.147-0.12-0.23-0.183c0.061,0,0.088,0,0.145-0.001
				c0.047-0.004,0.097-0.003,0.148-0.006c0.03-0.094,0.058-0.164,0.092-0.274c0.037,0.095,0.07,0.177,0.107,0.269
				C244.134,15.896,244.241,15.891,244.33,15.885z"/>
			<path fill-rule="evenodd" clip-rule="evenodd" fill="#FFFFFF" d="M244.323,14.463c-0.076,0.062-0.165,0.141-0.245,0.202
				c0.03,0.094,0.061,0.186,0.088,0.276c-0.088-0.053-0.157-0.094-0.248-0.153c-0.08,0.058-0.158,0.114-0.247,0.18
				c0.036-0.117,0.061-0.195,0.086-0.293c-0.074-0.058-0.146-0.122-0.229-0.183c0.058-0.002,0.086-0.002,0.143-0.002
				c0.048-0.005,0.098-0.005,0.149-0.005c0.031-0.095,0.057-0.165,0.091-0.274c0.038,0.094,0.069,0.174,0.108,0.268
				C244.127,14.475,244.234,14.47,244.323,14.463z"/>
			<path fill-rule="evenodd" clip-rule="evenodd" fill="#FFFFFF" d="M243.492,13.801c-0.077,0.058-0.166,0.131-0.245,0.189
				c0.032,0.095,0.06,0.188,0.091,0.28c-0.091-0.058-0.159-0.101-0.252-0.165c-0.077,0.055-0.156,0.107-0.245,0.168
				c0.035-0.115,0.06-0.193,0.087-0.29c-0.077-0.058-0.149-0.126-0.231-0.192c0.061,0.001,0.09,0.002,0.144,0.004
				c0.049-0.002,0.097,0,0.15,0.003c0.032-0.093,0.055-0.161,0.091-0.271c0.037,0.097,0.068,0.18,0.106,0.274
				C243.298,13.802,243.405,13.801,243.492,13.801z"/>
			<path fill-rule="evenodd" clip-rule="evenodd" fill="#FFFFFF" d="M245.998,14.305c-0.077,0.067-0.165,0.15-0.245,0.218
				c0.03,0.093,0.061,0.183,0.089,0.271c-0.089-0.046-0.158-0.081-0.25-0.135c-0.078,0.064-0.158,0.127-0.246,0.199
				c0.035-0.117,0.061-0.199,0.086-0.3c-0.075-0.048-0.146-0.11-0.23-0.163c0.061-0.006,0.088-0.01,0.145-0.014
				c0.047-0.009,0.098-0.012,0.148-0.016c0.032-0.098,0.057-0.17,0.092-0.284c0.037,0.092,0.069,0.171,0.107,0.259
				C245.803,14.328,245.909,14.315,245.998,14.305z"/>
			<path fill-rule="evenodd" clip-rule="evenodd" fill="#FFFFFF" d="M245.166,13.705c-0.077,0.064-0.165,0.146-0.245,0.213
				c0.03,0.092,0.062,0.182,0.092,0.271c-0.092-0.049-0.16-0.086-0.253-0.143c-0.077,0.061-0.155,0.121-0.245,0.189
				c0.036-0.116,0.06-0.198,0.086-0.296c-0.075-0.051-0.147-0.114-0.231-0.173c0.062-0.002,0.092-0.005,0.145-0.01
				c0.05-0.004,0.098-0.006,0.15-0.01c0.031-0.095,0.055-0.166,0.092-0.279c0.037,0.094,0.067,0.174,0.105,0.264
				C244.972,13.723,245.08,13.715,245.166,13.705z"/>
			<path fill-rule="evenodd" clip-rule="evenodd" fill="#FFFFFF" d="M245.181,12.27c-0.078,0.065-0.167,0.146-0.246,0.211
				c0.03,0.094,0.059,0.183,0.089,0.273c-0.089-0.05-0.159-0.088-0.25-0.143c-0.078,0.059-0.157,0.122-0.245,0.189
				c0.035-0.117,0.061-0.197,0.085-0.298c-0.077-0.05-0.147-0.114-0.229-0.17c0.06-0.005,0.088-0.007,0.145-0.01
				c0.046-0.005,0.097-0.007,0.148-0.011c0.031-0.097,0.057-0.168,0.091-0.279c0.038,0.094,0.07,0.173,0.107,0.265
				C244.984,12.288,245.091,12.278,245.181,12.27z"/>
			<path fill-rule="evenodd" clip-rule="evenodd" fill="#FFFFFF" d="M244.323,13.041c-0.076,0.062-0.165,0.14-0.245,0.202
				c0.03,0.095,0.061,0.185,0.088,0.274c-0.088-0.053-0.157-0.092-0.248-0.151c-0.08,0.057-0.158,0.114-0.247,0.179
				c0.036-0.117,0.061-0.197,0.086-0.295c-0.074-0.054-0.146-0.12-0.229-0.181c0.058,0,0.086-0.001,0.143-0.002
				c0.048-0.004,0.098-0.003,0.149-0.005c0.031-0.094,0.057-0.164,0.091-0.275c0.038,0.096,0.069,0.176,0.108,0.27
				C244.127,13.051,244.234,13.045,244.323,13.041z"/>
			<path fill-rule="evenodd" clip-rule="evenodd" fill="#FFFFFF" d="M244.336,11.605c-0.077,0.062-0.167,0.139-0.244,0.2
				c0.031,0.097,0.061,0.187,0.089,0.277c-0.09-0.053-0.158-0.094-0.252-0.153c-0.077,0.059-0.155,0.115-0.245,0.18
				c0.035-0.117,0.062-0.196,0.087-0.294c-0.075-0.054-0.149-0.12-0.229-0.181c0.059,0,0.088,0,0.142-0.002
				c0.049-0.006,0.098-0.003,0.151-0.006c0.029-0.095,0.055-0.164,0.09-0.274c0.037,0.095,0.067,0.175,0.106,0.268
				C244.141,11.617,244.248,11.61,244.336,11.605z"/>
			<path fill-rule="evenodd" clip-rule="evenodd" fill="#FFFFFF" d="M243.492,12.365c-0.077,0.059-0.166,0.131-0.245,0.189
				c0.032,0.096,0.06,0.188,0.091,0.281c-0.091-0.059-0.159-0.103-0.252-0.166c-0.077,0.055-0.156,0.107-0.245,0.168
				c0.035-0.114,0.06-0.193,0.087-0.289c-0.077-0.059-0.149-0.128-0.231-0.194c0.061,0.003,0.09,0.003,0.144,0.006
				c0.049-0.003,0.097,0,0.15,0.003c0.032-0.094,0.055-0.163,0.091-0.271c0.037,0.096,0.068,0.18,0.106,0.273
				C243.298,12.367,243.405,12.365,243.492,12.365z"/>
			<path fill-rule="evenodd" clip-rule="evenodd" fill="#FFFFFF" d="M242.661,11.636c-0.075,0.056-0.166,0.124-0.244,0.177
				c0.031,0.098,0.062,0.192,0.089,0.286c-0.089-0.062-0.159-0.109-0.252-0.179c-0.076,0.05-0.155,0.098-0.243,0.154
				c0.033-0.113,0.06-0.189,0.085-0.284c-0.074-0.062-0.146-0.138-0.23-0.206c0.061,0.006,0.089,0.008,0.143,0.014
				c0.051,0.001,0.098,0.006,0.15,0.01c0.032-0.091,0.056-0.16,0.092-0.266c0.036,0.099,0.067,0.184,0.106,0.279
				C242.468,11.627,242.573,11.635,242.661,11.636z"/>
			<path fill-rule="evenodd" clip-rule="evenodd" fill="#FFFFFF" d="M239.326,11.08c-0.077,0.033-0.165,0.078-0.245,0.111
				c0.03,0.104,0.06,0.207,0.088,0.31c-0.088-0.086-0.157-0.153-0.249-0.246c-0.077,0.028-0.157,0.056-0.246,0.085
				c0.036-0.104,0.061-0.173,0.086-0.262c-0.075-0.082-0.146-0.177-0.23-0.27c0.061,0.023,0.088,0.033,0.145,0.052
				c0.047,0.017,0.098,0.035,0.148,0.054c0.032-0.082,0.057-0.143,0.092-0.239c0.038,0.108,0.069,0.201,0.107,0.308
				C239.13,11.019,239.237,11.053,239.326,11.08z"/>
			<path fill-rule="evenodd" clip-rule="evenodd" fill="#FFFFFF" d="M241,11.476c-0.076,0.044-0.164,0.103-0.245,0.147
				c0.031,0.101,0.06,0.198,0.089,0.295c-0.089-0.072-0.157-0.129-0.25-0.209c-0.077,0.039-0.157,0.078-0.245,0.123
				c0.035-0.108,0.061-0.182,0.086-0.273c-0.075-0.072-0.147-0.155-0.23-0.234c0.059,0.012,0.088,0.019,0.145,0.031
				c0.047,0.006,0.097,0.019,0.148,0.029c0.032-0.088,0.057-0.152,0.092-0.256c0.037,0.104,0.068,0.193,0.105,0.293
				C240.806,11.443,240.912,11.463,241,11.476z"/>
			<path fill-rule="evenodd" clip-rule="evenodd" fill="#FFFFFF" d="M241.818,12.297c-0.077,0.051-0.165,0.113-0.244,0.161
				c0.029,0.101,0.059,0.196,0.088,0.292c-0.088-0.066-0.158-0.119-0.25-0.193c-0.078,0.044-0.156,0.091-0.246,0.139
				c0.036-0.11,0.061-0.186,0.086-0.278c-0.076-0.067-0.146-0.147-0.23-0.222c0.061,0.01,0.089,0.015,0.145,0.021
				c0.049,0.005,0.097,0.014,0.149,0.021c0.033-0.089,0.056-0.157,0.091-0.261c0.038,0.102,0.07,0.188,0.107,0.286
				C241.623,12.277,241.729,12.288,241.818,12.297z"/>
			<path fill-rule="evenodd" clip-rule="evenodd" fill="#FFFFFF" d="M240.157,12.03c-0.076,0.04-0.168,0.091-0.244,0.13
				c0.03,0.103,0.059,0.203,0.087,0.302c-0.089-0.079-0.158-0.142-0.251-0.227c-0.075,0.034-0.155,0.067-0.243,0.104
				c0.033-0.105,0.061-0.178,0.086-0.268c-0.076-0.077-0.148-0.165-0.23-0.252c0.061,0.018,0.087,0.025,0.144,0.042
				c0.047,0.011,0.096,0.025,0.149,0.041c0.03-0.085,0.057-0.147,0.09-0.248c0.038,0.106,0.07,0.196,0.107,0.3
				C239.962,11.982,240.067,12.01,240.157,12.03z"/>
			<path fill-rule="evenodd" clip-rule="evenodd" fill="#FFFFFF" d="M239.316,12.521c-0.077,0.033-0.165,0.078-0.245,0.111
				c0.03,0.105,0.06,0.207,0.09,0.309c-0.091-0.086-0.159-0.151-0.251-0.246c-0.078,0.028-0.157,0.055-0.246,0.085
				c0.035-0.103,0.061-0.173,0.087-0.261c-0.075-0.084-0.147-0.178-0.23-0.27c0.06,0.022,0.088,0.033,0.144,0.053
				c0.05,0.014,0.097,0.035,0.149,0.053c0.031-0.082,0.056-0.143,0.092-0.24c0.036,0.109,0.068,0.201,0.106,0.309
				C239.121,12.461,239.229,12.493,239.316,12.521z"/>
			<path fill-rule="evenodd" clip-rule="evenodd" fill="#FFFFFF" d="M240.994,12.908c-0.077,0.047-0.166,0.103-0.245,0.148
				c0.03,0.102,0.06,0.199,0.091,0.295c-0.092-0.072-0.161-0.129-0.252-0.209c-0.079,0.041-0.158,0.08-0.246,0.123
				c0.034-0.107,0.06-0.183,0.086-0.273c-0.075-0.072-0.146-0.156-0.231-0.234c0.061,0.012,0.09,0.018,0.146,0.029
				c0.049,0.009,0.096,0.02,0.149,0.03c0.032-0.087,0.056-0.151,0.092-0.255c0.036,0.104,0.068,0.192,0.104,0.295
				C240.799,12.877,240.907,12.895,240.994,12.908z"/>
			<path fill-rule="evenodd" clip-rule="evenodd" fill="#FFFFFF" d="M240.157,13.451c-0.076,0.041-0.168,0.092-0.244,0.132
				c0.03,0.104,0.059,0.202,0.087,0.302c-0.089-0.08-0.158-0.141-0.251-0.227c-0.075,0.032-0.155,0.066-0.243,0.104
				c0.033-0.105,0.061-0.178,0.086-0.267c-0.076-0.079-0.148-0.167-0.23-0.252c0.061,0.017,0.087,0.025,0.144,0.04
				c0.047,0.012,0.096,0.027,0.149,0.042c0.03-0.083,0.057-0.147,0.09-0.247c0.038,0.105,0.07,0.196,0.107,0.301
				C239.962,13.407,240.067,13.433,240.157,13.451z"/>
			<path fill-rule="evenodd" clip-rule="evenodd" fill="#FFFFFF" d="M239.316,13.942c-0.077,0.035-0.165,0.079-0.245,0.112
				c0.03,0.107,0.06,0.209,0.09,0.311c-0.091-0.088-0.159-0.154-0.251-0.248c-0.078,0.027-0.157,0.056-0.246,0.086
				c0.035-0.104,0.061-0.172,0.087-0.261c-0.075-0.084-0.147-0.177-0.23-0.271c0.06,0.021,0.088,0.033,0.144,0.053
				c0.05,0.016,0.097,0.035,0.149,0.055c0.031-0.084,0.056-0.145,0.092-0.242c0.036,0.109,0.068,0.203,0.106,0.309
				C239.121,13.883,239.229,13.918,239.316,13.942z"/>
			<path fill-rule="evenodd" clip-rule="evenodd" fill="#FFFFFF" d="M240.994,14.332c-0.077,0.043-0.166,0.103-0.245,0.146
				c0.03,0.102,0.06,0.199,0.091,0.296c-0.092-0.072-0.161-0.128-0.252-0.207c-0.079,0.037-0.158,0.077-0.246,0.12
				c0.034-0.107,0.06-0.181,0.086-0.273c-0.075-0.074-0.146-0.154-0.231-0.235c0.061,0.014,0.09,0.021,0.146,0.032
				c0.049,0.007,0.096,0.019,0.149,0.029c0.032-0.086,0.056-0.15,0.092-0.254c0.036,0.104,0.068,0.191,0.104,0.293
				C240.799,14.299,240.907,14.317,240.994,14.332z"/>
			<path fill-rule="evenodd" clip-rule="evenodd" fill="#FFFFFF" d="M240.157,14.875c-0.076,0.039-0.168,0.09-0.244,0.13
				c0.03,0.104,0.059,0.202,0.087,0.303c-0.089-0.079-0.158-0.142-0.251-0.228c-0.075,0.035-0.155,0.067-0.243,0.104
				c0.033-0.104,0.061-0.177,0.086-0.268c-0.076-0.077-0.148-0.167-0.23-0.252c0.061,0.017,0.087,0.025,0.144,0.042
				c0.047,0.011,0.096,0.026,0.149,0.041c0.03-0.084,0.057-0.146,0.09-0.248c0.038,0.107,0.07,0.196,0.107,0.3
				C239.962,14.828,240.067,14.854,240.157,14.875z"/>
			<path fill-rule="evenodd" clip-rule="evenodd" fill="#FFFFFF" d="M239.316,15.365c-0.077,0.034-0.165,0.08-0.245,0.112
				c0.03,0.106,0.06,0.208,0.09,0.309c-0.091-0.084-0.159-0.151-0.251-0.245c-0.078,0.028-0.157,0.055-0.246,0.084
				c0.035-0.103,0.061-0.173,0.087-0.26c-0.075-0.084-0.147-0.178-0.23-0.272c0.06,0.024,0.088,0.034,0.144,0.055
				c0.05,0.016,0.097,0.034,0.149,0.053c0.031-0.081,0.056-0.144,0.092-0.239c0.036,0.107,0.068,0.199,0.106,0.307
				C239.121,15.305,239.229,15.339,239.316,15.365z"/>
			<path fill-rule="evenodd" clip-rule="evenodd" fill="#FFFFFF" d="M240.994,15.752c-0.077,0.048-0.166,0.105-0.245,0.15
				c0.03,0.1,0.06,0.197,0.091,0.295c-0.092-0.072-0.161-0.129-0.252-0.209c-0.079,0.039-0.158,0.079-0.246,0.123
				c0.034-0.109,0.06-0.183,0.086-0.274c-0.075-0.072-0.146-0.155-0.231-0.235c0.061,0.012,0.09,0.019,0.146,0.03
				c0.049,0.009,0.096,0.021,0.149,0.03c0.032-0.087,0.056-0.152,0.092-0.254c0.036,0.104,0.068,0.193,0.104,0.294
				C240.799,15.723,240.907,15.739,240.994,15.752z"/>
			<path fill-rule="evenodd" clip-rule="evenodd" fill="#FFFFFF" d="M240.157,16.284c-0.076,0.04-0.168,0.091-0.244,0.13
				c0.03,0.104,0.059,0.203,0.087,0.303c-0.089-0.079-0.158-0.141-0.251-0.227c-0.075,0.034-0.155,0.068-0.243,0.104
				c0.033-0.104,0.061-0.177,0.086-0.266c-0.076-0.078-0.148-0.168-0.23-0.254c0.061,0.019,0.087,0.025,0.144,0.043
				c0.047,0.01,0.096,0.025,0.149,0.041c0.03-0.085,0.057-0.147,0.09-0.248c0.038,0.105,0.07,0.197,0.107,0.301
				C239.962,16.238,240.067,16.264,240.157,16.284z"/>
			<path fill-rule="evenodd" clip-rule="evenodd" fill="#FFFFFF" d="M239.316,16.775c-0.077,0.035-0.165,0.079-0.245,0.111
				c0.03,0.106,0.06,0.208,0.09,0.311c-0.091-0.086-0.159-0.154-0.251-0.247c-0.078,0.027-0.157,0.057-0.246,0.087
				c0.035-0.104,0.061-0.174,0.087-0.262c-0.075-0.084-0.147-0.178-0.23-0.271c0.06,0.023,0.088,0.033,0.144,0.053
				c0.05,0.016,0.097,0.035,0.149,0.053c0.031-0.082,0.056-0.143,0.092-0.239c0.036,0.109,0.068,0.2,0.106,0.308
				C239.121,16.715,239.229,16.75,239.316,16.775z"/>
			<path fill-rule="evenodd" clip-rule="evenodd" fill="#FFFFFF" d="M240.994,17.164c-0.077,0.045-0.166,0.104-0.245,0.147
				c0.03,0.102,0.06,0.198,0.091,0.296c-0.092-0.072-0.161-0.129-0.252-0.209c-0.079,0.039-0.158,0.078-0.246,0.123
				c0.034-0.109,0.06-0.182,0.086-0.275c-0.075-0.072-0.146-0.154-0.231-0.236c0.062,0.016,0.09,0.021,0.146,0.031
				c0.049,0.01,0.096,0.021,0.149,0.032c0.032-0.089,0.056-0.152,0.092-0.256c0.036,0.104,0.068,0.192,0.104,0.294
				C240.799,17.132,240.907,17.15,240.994,17.164z"/>
			<path fill-rule="evenodd" clip-rule="evenodd" fill="#FFFFFF" d="M243.479,16.632c-0.076,0.06-0.166,0.132-0.243,0.19
				c0.029,0.096,0.06,0.188,0.088,0.281c-0.09-0.059-0.158-0.102-0.252-0.164c-0.077,0.052-0.156,0.105-0.243,0.165
				c0.032-0.114,0.06-0.192,0.084-0.29c-0.074-0.058-0.146-0.127-0.229-0.192c0.059,0.003,0.088,0.003,0.142,0.005
				c0.05,0,0.099,0.002,0.151,0.002c0.031-0.092,0.056-0.161,0.091-0.271c0.037,0.1,0.068,0.18,0.105,0.275
				C243.286,16.633,243.393,16.633,243.479,16.632z"/>
			<path fill-rule="evenodd" clip-rule="evenodd" fill="#FFFFFF" d="M242.641,17.334c-0.078,0.055-0.167,0.123-0.244,0.178
				c0.028,0.098,0.059,0.191,0.088,0.285c-0.091-0.062-0.159-0.11-0.251-0.178c-0.077,0.049-0.158,0.098-0.245,0.153
				c0.034-0.113,0.06-0.19,0.086-0.284c-0.076-0.062-0.148-0.138-0.23-0.207c0.06,0.006,0.087,0.008,0.143,0.012
				c0.049,0.002,0.098,0.01,0.151,0.013c0.03-0.093,0.056-0.16,0.091-0.267c0.036,0.1,0.067,0.184,0.106,0.279
				C242.445,17.325,242.552,17.332,242.641,17.334z"/>
			<path fill-rule="evenodd" clip-rule="evenodd" fill="#FFFFFF" d="M244.316,17.321c-0.076,0.063-0.164,0.139-0.244,0.2
				c0.03,0.097,0.06,0.186,0.089,0.276c-0.089-0.051-0.159-0.093-0.25-0.151c-0.077,0.057-0.157,0.113-0.246,0.178
				c0.036-0.115,0.06-0.195,0.087-0.295c-0.076-0.053-0.148-0.119-0.23-0.18c0.061,0,0.089,0,0.142-0.003
				c0.051-0.003,0.099-0.003,0.151-0.003c0.031-0.096,0.056-0.164,0.092-0.275c0.037,0.094,0.067,0.176,0.105,0.269
				C244.123,17.332,244.23,17.326,244.316,17.321z"/>
			<path fill-rule="evenodd" clip-rule="evenodd" fill="#FFFFFF" d="M246.841,16.309c-0.078,0.071-0.165,0.155-0.245,0.227
				c0.03,0.092,0.061,0.18,0.091,0.268c-0.092-0.043-0.16-0.078-0.253-0.127c-0.077,0.065-0.156,0.132-0.245,0.207
				c0.035-0.119,0.061-0.203,0.087-0.303c-0.076-0.047-0.147-0.105-0.231-0.154c0.061-0.009,0.089-0.014,0.145-0.021
				c0.05-0.009,0.097-0.013,0.149-0.021c0.033-0.096,0.056-0.17,0.092-0.285c0.037,0.092,0.067,0.17,0.105,0.26
				C246.646,16.339,246.754,16.322,246.841,16.309z"/>
			<path fill-rule="evenodd" clip-rule="evenodd" fill="#FFFFFF" d="M246,17.146c-0.077,0.067-0.166,0.151-0.243,0.22
				c0.029,0.092,0.06,0.181,0.089,0.269c-0.09-0.045-0.159-0.081-0.252-0.134c-0.078,0.064-0.157,0.128-0.244,0.199
				c0.035-0.119,0.059-0.201,0.084-0.301c-0.074-0.048-0.146-0.108-0.23-0.162c0.061-0.006,0.091-0.009,0.145-0.016
				c0.049-0.008,0.098-0.009,0.15-0.016c0.032-0.096,0.057-0.168,0.093-0.283c0.037,0.094,0.067,0.17,0.105,0.261
				C245.807,17.171,245.914,17.156,246,17.146z"/>
			<path fill-rule="evenodd" clip-rule="evenodd" fill="#FFFFFF" d="M247.678,16.884c-0.076,0.071-0.165,0.159-0.243,0.231
				c0.03,0.092,0.059,0.178,0.087,0.267c-0.089-0.042-0.158-0.075-0.249-0.12c-0.077,0.066-0.158,0.136-0.247,0.213
				c0.036-0.123,0.062-0.205,0.088-0.307c-0.076-0.045-0.148-0.1-0.23-0.149c0.059-0.009,0.086-0.012,0.143-0.021
				c0.048-0.013,0.098-0.02,0.148-0.025c0.032-0.101,0.058-0.173,0.094-0.29c0.036,0.092,0.067,0.168,0.106,0.256
				C247.483,16.918,247.589,16.899,247.678,16.884z"/>
			<path fill-rule="evenodd" clip-rule="evenodd" fill="#FFFFFF" d="M246.841,14.897c-0.078,0.07-0.165,0.158-0.245,0.228
				c0.03,0.092,0.061,0.18,0.091,0.268c-0.092-0.043-0.16-0.078-0.253-0.127c-0.077,0.066-0.156,0.134-0.245,0.207
				c0.035-0.121,0.061-0.203,0.087-0.303c-0.076-0.045-0.147-0.104-0.231-0.155c0.061-0.007,0.089-0.013,0.145-0.02
				c0.05-0.009,0.097-0.013,0.149-0.021c0.033-0.098,0.056-0.171,0.092-0.286c0.037,0.092,0.067,0.168,0.105,0.258
				C246.646,14.928,246.754,14.912,246.841,14.897z"/>
			<path fill-rule="evenodd" clip-rule="evenodd" fill="#FFFFFF" d="M246,15.734c-0.077,0.068-0.166,0.153-0.243,0.22
				c0.029,0.093,0.06,0.181,0.089,0.269c-0.09-0.043-0.159-0.08-0.252-0.133c-0.078,0.062-0.157,0.129-0.244,0.199
				c0.035-0.119,0.059-0.201,0.084-0.301c-0.074-0.047-0.146-0.107-0.23-0.161c0.061-0.007,0.091-0.009,0.145-0.017
				c0.049-0.006,0.098-0.008,0.15-0.016c0.032-0.096,0.057-0.169,0.093-0.282c0.037,0.092,0.067,0.17,0.105,0.261
				C245.807,15.76,245.914,15.745,246,15.734z"/>
			<path fill-rule="evenodd" clip-rule="evenodd" fill="#FFFFFF" d="M247.678,15.473c-0.076,0.071-0.165,0.162-0.243,0.234
				c0.03,0.09,0.059,0.176,0.087,0.264c-0.089-0.041-0.158-0.073-0.249-0.121c-0.077,0.068-0.158,0.137-0.247,0.215
				c0.036-0.123,0.062-0.205,0.088-0.307c-0.076-0.045-0.148-0.1-0.23-0.15c0.059-0.008,0.086-0.013,0.143-0.021
				c0.048-0.011,0.098-0.017,0.148-0.025c0.032-0.098,0.058-0.171,0.094-0.288c0.036,0.092,0.067,0.167,0.106,0.255
				C247.483,15.508,247.589,15.49,247.678,15.473z"/>
			<path fill-rule="evenodd" clip-rule="evenodd" fill="#FFFFFF" d="M246.841,12.053c-0.078,0.07-0.165,0.157-0.245,0.227
				c0.03,0.092,0.061,0.179,0.091,0.268c-0.092-0.043-0.16-0.076-0.253-0.126c-0.077,0.066-0.156,0.134-0.245,0.206
				c0.035-0.119,0.061-0.203,0.087-0.303c-0.076-0.045-0.147-0.105-0.231-0.154c0.061-0.008,0.089-0.012,0.145-0.02
				c0.05-0.008,0.097-0.016,0.149-0.022c0.033-0.097,0.056-0.17,0.092-0.284c0.037,0.092,0.067,0.167,0.105,0.258
				C246.646,12.083,246.754,12.067,246.841,12.053z"/>
			<path fill-rule="evenodd" clip-rule="evenodd" fill="#FFFFFF" d="M246,12.89c-0.077,0.067-0.166,0.151-0.243,0.219
				c0.029,0.094,0.06,0.182,0.089,0.271c-0.09-0.045-0.159-0.082-0.252-0.133c-0.078,0.063-0.157,0.127-0.244,0.198
				c0.035-0.119,0.059-0.201,0.084-0.302c-0.074-0.048-0.146-0.107-0.23-0.161c0.061-0.006,0.091-0.009,0.145-0.015
				c0.049-0.007,0.098-0.011,0.15-0.017c0.032-0.097,0.057-0.169,0.093-0.283c0.037,0.093,0.067,0.171,0.105,0.262
				C245.807,12.915,245.914,12.9,246,12.89z"/>
			<path fill-rule="evenodd" clip-rule="evenodd" fill="#FFFFFF" d="M247.678,12.629c-0.076,0.07-0.165,0.16-0.243,0.232
				c0.03,0.089,0.059,0.177,0.087,0.264c-0.089-0.039-0.158-0.072-0.249-0.119c-0.077,0.067-0.158,0.137-0.247,0.213
				c0.036-0.121,0.062-0.205,0.088-0.307c-0.076-0.044-0.148-0.1-0.23-0.148c0.059-0.009,0.086-0.014,0.143-0.021
				c0.048-0.012,0.098-0.018,0.148-0.027c0.032-0.098,0.058-0.171,0.094-0.287c0.036,0.092,0.067,0.167,0.106,0.255
				C247.483,12.663,247.589,12.645,247.678,12.629z"/>
			<path fill-rule="evenodd" clip-rule="evenodd" fill="#FFFFFF" d="M242.649,14.48c-0.076,0.056-0.168,0.124-0.243,0.178
				c0.029,0.098,0.058,0.191,0.086,0.284c-0.089-0.061-0.157-0.11-0.249-0.177c-0.077,0.049-0.157,0.098-0.245,0.154
				c0.035-0.115,0.06-0.191,0.086-0.286c-0.077-0.063-0.147-0.137-0.23-0.206c0.061,0.006,0.087,0.008,0.144,0.013
				c0.047,0.001,0.097,0.007,0.149,0.011c0.03-0.092,0.057-0.158,0.091-0.266c0.038,0.1,0.069,0.184,0.108,0.28
				C242.453,14.473,242.561,14.477,242.649,14.48z"/>
			<path fill-rule="evenodd" clip-rule="evenodd" fill="#FFFFFF" d="M241.818,13.731c-0.077,0.051-0.165,0.113-0.244,0.161
				c0.029,0.102,0.059,0.197,0.088,0.293c-0.088-0.066-0.158-0.12-0.25-0.193c-0.078,0.043-0.156,0.089-0.246,0.139
				c0.036-0.111,0.061-0.186,0.086-0.279c-0.076-0.066-0.146-0.146-0.23-0.221c0.061,0.01,0.089,0.014,0.145,0.022
				c0.049,0.003,0.097,0.012,0.149,0.019c0.033-0.088,0.056-0.154,0.091-0.26c0.038,0.103,0.07,0.188,0.107,0.285
				C241.623,13.713,241.729,13.723,241.818,13.731z"/>
			<path fill-rule="evenodd" clip-rule="evenodd" fill="#FFFFFF" d="M247.671,14.053c-0.075,0.07-0.164,0.16-0.244,0.232
				c0.03,0.09,0.061,0.178,0.09,0.263c-0.09-0.038-0.159-0.072-0.251-0.118c-0.077,0.067-0.157,0.135-0.246,0.213
				c0.036-0.123,0.062-0.205,0.087-0.306c-0.076-0.044-0.148-0.101-0.23-0.148c0.061-0.011,0.089-0.016,0.144-0.024
				c0.048-0.01,0.098-0.017,0.149-0.025c0.031-0.099,0.056-0.172,0.092-0.287c0.037,0.091,0.068,0.167,0.107,0.254
				C247.478,14.088,247.585,14.068,247.671,14.053z"/>
			<path fill-rule="evenodd" clip-rule="evenodd" fill="#FFFFFF" d="M246.841,13.502c-0.078,0.069-0.165,0.154-0.245,0.227
				c0.03,0.092,0.061,0.18,0.091,0.266c-0.092-0.042-0.16-0.076-0.253-0.125c-0.077,0.064-0.156,0.131-0.245,0.206
				c0.035-0.12,0.061-0.202,0.087-0.303c-0.076-0.047-0.147-0.104-0.231-0.155c0.061-0.008,0.089-0.012,0.145-0.02
				c0.05-0.01,0.097-0.014,0.149-0.021c0.033-0.098,0.056-0.173,0.092-0.287c0.037,0.092,0.067,0.169,0.106,0.259
				C246.646,13.531,246.754,13.516,246.841,13.502z"/>
			<path fill-rule="evenodd" clip-rule="evenodd" fill="#FFFFFF" d="M245.181,15.115c-0.078,0.064-0.167,0.146-0.246,0.212
				c0.03,0.093,0.059,0.181,0.089,0.271c-0.089-0.048-0.159-0.086-0.25-0.142c-0.078,0.062-0.157,0.122-0.245,0.189
				c0.035-0.117,0.061-0.198,0.085-0.297c-0.077-0.052-0.147-0.114-0.229-0.171c0.06-0.004,0.088-0.006,0.145-0.01
				c0.046-0.005,0.097-0.008,0.148-0.012c0.031-0.096,0.057-0.166,0.091-0.277c0.038,0.092,0.07,0.173,0.107,0.264
				C244.984,15.133,245.091,15.123,245.181,15.115z"/>
			<path fill-rule="evenodd" clip-rule="evenodd" fill="#FFFFFF" d="M245.166,16.551c-0.077,0.064-0.165,0.146-0.245,0.211
				c0.03,0.093,0.062,0.184,0.092,0.272c-0.092-0.05-0.16-0.087-0.253-0.142c-0.078,0.06-0.155,0.12-0.245,0.189
				c0.036-0.117,0.06-0.198,0.086-0.297c-0.075-0.051-0.147-0.115-0.231-0.173c0.062-0.003,0.092-0.005,0.145-0.009
				c0.05-0.006,0.098-0.006,0.15-0.01c0.031-0.096,0.055-0.167,0.092-0.279c0.037,0.093,0.067,0.172,0.105,0.263
				C244.972,16.568,245.08,16.559,245.166,16.551z"/>
			<path fill-rule="evenodd" clip-rule="evenodd" fill="#FFFFFF" d="M241.818,15.128c-0.077,0.052-0.165,0.114-0.244,0.164
				c0.029,0.101,0.059,0.195,0.088,0.29c-0.088-0.066-0.158-0.119-0.25-0.192c-0.078,0.044-0.156,0.088-0.246,0.138
				c0.036-0.109,0.061-0.186,0.086-0.279c-0.076-0.066-0.146-0.146-0.23-0.221c0.061,0.01,0.089,0.016,0.145,0.022
				c0.049,0.005,0.097,0.013,0.149,0.021c0.033-0.088,0.056-0.156,0.091-0.261c0.038,0.103,0.07,0.188,0.107,0.286
				C241.623,15.109,241.729,15.121,241.818,15.128z"/>
			<path fill-rule="evenodd" clip-rule="evenodd" fill="#FFFFFF" d="M241.806,16.564c-0.077,0.048-0.167,0.111-0.244,0.161
				c0.03,0.099,0.06,0.194,0.09,0.29c-0.091-0.068-0.161-0.119-0.253-0.192c-0.078,0.045-0.155,0.089-0.244,0.139
				c0.035-0.112,0.061-0.187,0.086-0.28c-0.076-0.066-0.147-0.146-0.229-0.221c0.058,0.01,0.088,0.014,0.141,0.022
				c0.051,0.005,0.098,0.013,0.152,0.019c0.03-0.088,0.056-0.152,0.091-0.259c0.037,0.102,0.067,0.187,0.104,0.286
				C241.611,16.543,241.719,16.555,241.806,16.564z"/>
			<path fill-rule="evenodd" clip-rule="evenodd" fill="#FFFFFF" d="M242.661,13.061c-0.075,0.053-0.166,0.121-0.244,0.177
				c0.031,0.098,0.062,0.19,0.089,0.283c-0.089-0.06-0.159-0.108-0.252-0.176c-0.076,0.048-0.155,0.098-0.243,0.151
				c0.033-0.113,0.06-0.189,0.085-0.285c-0.074-0.062-0.146-0.135-0.23-0.205c0.061,0.006,0.089,0.008,0.143,0.012
				c0.051,0.002,0.098,0.009,0.15,0.012c0.032-0.092,0.056-0.158,0.092-0.266c0.036,0.102,0.067,0.184,0.106,0.279
				C242.468,13.051,242.573,13.055,242.661,13.061z"/>
			<path fill-rule="evenodd" clip-rule="evenodd" fill="#FFFFFF" d="M246.01,11.445c-0.077,0.066-0.166,0.152-0.244,0.219
				c0.031,0.092,0.06,0.18,0.089,0.27c-0.089-0.046-0.158-0.082-0.251-0.134c-0.077,0.063-0.156,0.128-0.244,0.2
				c0.033-0.121,0.06-0.201,0.085-0.301c-0.076-0.049-0.148-0.109-0.23-0.164c0.06-0.004,0.087-0.008,0.144-0.013
				c0.049-0.01,0.098-0.013,0.151-0.019c0.03-0.096,0.056-0.168,0.089-0.281c0.037,0.092,0.07,0.17,0.106,0.26
				C245.814,11.469,245.922,11.456,246.01,11.445z"/>
			<path fill-rule="evenodd" clip-rule="evenodd" fill="#FFFFFF" d="M247.686,11.191c-0.078,0.072-0.168,0.161-0.245,0.233
				c0.03,0.091,0.059,0.177,0.088,0.265c-0.089-0.041-0.158-0.072-0.251-0.12c-0.077,0.066-0.156,0.136-0.245,0.214
				c0.035-0.121,0.061-0.205,0.086-0.307c-0.074-0.043-0.147-0.099-0.23-0.148c0.061-0.008,0.088-0.014,0.145-0.022
				c0.048-0.011,0.097-0.017,0.15-0.025c0.028-0.098,0.057-0.173,0.09-0.29c0.037,0.092,0.07,0.168,0.106,0.256
				C247.488,11.227,247.596,11.207,247.686,11.191z"/>
		</g>
		<rect x="237.037" y="8.201" fill-rule="evenodd" clip-rule="evenodd" fill="#D0D2D3" width="1.271" height="41.695"/>
		<circle fill-rule="evenodd" clip-rule="evenodd" fill="#D0D2D3" cx="237.673" cy="7.82" r="1.906"/>
	</g>
	<rect x="30.234" y="83.194" fill="#D0D2D3" width="415.473" height="4.175"/>
	<g>
		<polygon fill="#D0D2D3" points="237.83,51.731 321.874,94.02 153.783,94.02 		"/>
		<rect x="158.981" y="93.693" fill="#D0D2D3" width="157.696" height="22.117"/>
		<rect x="158.981" y="105.033" fill="#BBBDBF" width="157.696" height="2.341"/>
		<polygon fill="#BBBDBF" points="239.21,52.117 153.168,94.779 151.742,91.082 237.785,48.422 		"/>
		<polygon fill="#BBBDBF" points="236.361,52.117 322.403,94.779 323.828,91.082 237.787,48.422 		"/>
		<rect x="151.742" y="91.082" fill="#BBBDBF" width="172.086" height="3.697"/>
	</g>
	<g>
		<g>
			<rect x="40.719" y="116.249" fill="#676767" width="4.15" height="6.943"/>
			<rect x="45.77" y="116.249" fill="#676767" width="4.15" height="6.943"/>
			<rect x="50.778" y="116.249" fill="#676767" width="4.15" height="6.943"/>
			<rect x="40.655" y="123.921" fill="#676767" width="4.149" height="6.943"/>
			<rect x="45.705" y="123.921" fill="#676767" width="4.15" height="6.943"/>
			<rect x="50.778" y="123.921" fill="#676767" width="4.15" height="6.943"/>
			<rect x="40.654" y="131.604" fill="#676767" width="4.15" height="6.943"/>
			<rect x="45.704" y="131.604" fill="#676767" width="4.15" height="6.943"/>
			<rect x="50.778" y="131.604" fill="#676767" width="4.15" height="6.943"/>
			<rect x="40.719" y="139.27" fill="#676767" width="4.15" height="6.943"/>
			<rect x="45.77" y="139.27" fill="#676767" width="4.15" height="6.943"/>
			<rect x="50.778" y="139.27" fill="#676767" width="4.15" height="6.943"/>
		</g>
		<g>
			<rect x="75.128" y="115.883" fill="#676767" width="4.149" height="6.943"/>
			<rect x="80.178" y="115.883" fill="#676767" width="4.15" height="6.943"/>
			<rect x="85.188" y="115.883" fill="#676767" width="4.15" height="6.943"/>
			<rect x="75.064" y="123.555" fill="#676767" width="4.148" height="6.942"/>
			<rect x="80.114" y="123.555" fill="#676767" width="4.15" height="6.942"/>
			<rect x="85.188" y="123.555" fill="#676767" width="4.15" height="6.942"/>
			<rect x="75.062" y="131.235" fill="#676767" width="4.15" height="6.944"/>
			<rect x="80.113" y="131.235" fill="#676767" width="4.15" height="6.944"/>
			<rect x="85.188" y="131.235" fill="#676767" width="4.15" height="6.944"/>
			<rect x="75.128" y="138.902" fill="#676767" width="4.149" height="6.944"/>
			<rect x="80.178" y="138.902" fill="#676767" width="4.15" height="6.944"/>
			<rect x="85.188" y="138.902" fill="#676767" width="4.15" height="6.944"/>
		</g>
		<g>
			<rect x="108.458" y="116.254" fill="#676767" width="4.15" height="6.943"/>
			<rect x="113.508" y="116.254" fill="#676767" width="4.15" height="6.943"/>
			<rect x="118.518" y="116.254" fill="#676767" width="4.15" height="6.943"/>
			<rect x="108.395" y="123.926" fill="#676767" width="4.15" height="6.943"/>
			<rect x="113.443" y="123.926" fill="#676767" width="4.151" height="6.943"/>
			<rect x="118.518" y="123.926" fill="#676767" width="4.15" height="6.943"/>
			<rect x="108.393" y="131.608" fill="#676767" width="4.15" height="6.943"/>
			<rect x="113.443" y="131.608" fill="#676767" width="4.15" height="6.943"/>
			<rect x="118.518" y="131.608" fill="#676767" width="4.15" height="6.943"/>
			<rect x="108.458" y="139.275" fill="#676767" width="4.15" height="6.942"/>
			<rect x="113.508" y="139.275" fill="#676767" width="4.15" height="6.942"/>
			<rect x="118.518" y="139.275" fill="#676767" width="4.15" height="6.942"/>
		</g>
		<g>
			<rect x="141.033" y="116.709" fill="#676767" width="4.15" height="6.943"/>
			<rect x="146.084" y="116.709" fill="#676767" width="4.15" height="6.943"/>
			<rect x="151.092" y="116.709" fill="#676767" width="4.15" height="6.943"/>
			<rect x="140.969" y="124.38" fill="#676767" width="4.15" height="6.943"/>
			<rect x="146.02" y="124.38" fill="#676767" width="4.15" height="6.943"/>
			<rect x="151.092" y="124.38" fill="#676767" width="4.15" height="6.943"/>
			<rect x="140.967" y="132.062" fill="#676767" width="4.151" height="6.943"/>
			<rect x="146.019" y="132.062" fill="#676767" width="4.149" height="6.943"/>
			<rect x="151.092" y="132.062" fill="#676767" width="4.15" height="6.943"/>
			<rect x="141.033" y="139.729" fill="#676767" width="4.15" height="6.943"/>
			<rect x="146.084" y="139.729" fill="#676767" width="4.15" height="6.943"/>
			<rect x="151.092" y="139.729" fill="#676767" width="4.15" height="6.943"/>
		</g>
		<g>
			<rect x="41.73" y="169.827" fill="#676767" width="4.15" height="6.943"/>
			<rect x="46.782" y="169.827" fill="#676767" width="4.15" height="6.943"/>
			<rect x="51.79" y="169.827" fill="#676767" width="4.15" height="6.943"/>
			<rect x="41.667" y="177.499" fill="#676767" width="4.15" height="6.943"/>
			<rect x="46.719" y="177.499" fill="#676767" width="4.148" height="6.943"/>
			<rect x="51.79" y="177.499" fill="#676767" width="4.15" height="6.943"/>
			<rect x="41.666" y="185.181" fill="#676767" width="4.15" height="6.944"/>
			<rect x="46.717" y="185.181" fill="#676767" width="4.149" height="6.944"/>
			<rect x="51.79" y="185.181" fill="#676767" width="4.15" height="6.944"/>
			<rect x="41.73" y="192.847" fill="#676767" width="4.15" height="6.945"/>
			<rect x="46.782" y="192.847" fill="#676767" width="4.15" height="6.945"/>
			<rect x="51.79" y="192.847" fill="#676767" width="4.15" height="6.945"/>
		</g>
		<g>
			<rect x="76.14" y="169.461" fill="#676767" width="4.151" height="6.943"/>
			<rect x="81.191" y="169.461" fill="#676767" width="4.148" height="6.943"/>
			<rect x="86.199" y="169.461" fill="#676767" width="4.15" height="6.943"/>
			<rect x="76.076" y="177.133" fill="#676767" width="4.15" height="6.943"/>
			<rect x="81.126" y="177.133" fill="#676767" width="4.15" height="6.943"/>
			<rect x="86.199" y="177.133" fill="#676767" width="4.15" height="6.943"/>
			<rect x="76.074" y="184.813" fill="#676767" width="4.15" height="6.943"/>
			<rect x="81.125" y="184.813" fill="#676767" width="4.15" height="6.943"/>
			<rect x="86.199" y="184.813" fill="#676767" width="4.15" height="6.943"/>
			<rect x="76.14" y="192.48" fill="#676767" width="4.151" height="6.943"/>
			<rect x="81.191" y="192.48" fill="#676767" width="4.148" height="6.943"/>
			<rect x="86.199" y="192.48" fill="#676767" width="4.15" height="6.943"/>
		</g>
		<g>
			<rect x="109.47" y="169.832" fill="#676767" width="4.15" height="6.943"/>
			<rect x="114.521" y="169.832" fill="#676767" width="4.15" height="6.943"/>
			<rect x="119.529" y="169.832" fill="#676767" width="4.15" height="6.943"/>
			<rect x="109.406" y="177.504" fill="#676767" width="4.15" height="6.943"/>
			<rect x="114.457" y="177.504" fill="#676767" width="4.149" height="6.943"/>
			<rect x="119.529" y="177.504" fill="#676767" width="4.15" height="6.943"/>
			<rect x="109.404" y="185.186" fill="#676767" width="4.15" height="6.943"/>
			<rect x="114.455" y="185.186" fill="#676767" width="4.15" height="6.943"/>
			<rect x="119.529" y="185.186" fill="#676767" width="4.15" height="6.943"/>
			<rect x="109.47" y="192.852" fill="#676767" width="4.15" height="6.943"/>
			<rect x="114.521" y="192.852" fill="#676767" width="4.15" height="6.943"/>
			<rect x="119.529" y="192.852" fill="#676767" width="4.15" height="6.943"/>
		</g>
		<g>
			<rect x="142.045" y="169.093" fill="#676767" width="4.15" height="6.944"/>
			<rect x="147.096" y="169.093" fill="#676767" width="4.15" height="6.944"/>
			<rect x="152.104" y="169.093" fill="#676767" width="4.151" height="6.944"/>
			<rect x="141.981" y="176.765" fill="#676767" width="4.149" height="6.943"/>
			<rect x="147.031" y="176.765" fill="#676767" width="4.15" height="6.943"/>
			<rect x="152.104" y="176.765" fill="#676767" width="4.151" height="6.943"/>
			<rect x="141.98" y="184.447" fill="#676767" width="4.149" height="6.943"/>
			<rect x="147.03" y="184.447" fill="#676767" width="4.151" height="6.943"/>
			<rect x="152.104" y="184.447" fill="#676767" width="4.151" height="6.943"/>
			<rect x="142.045" y="192.114" fill="#676767" width="4.15" height="6.943"/>
			<rect x="147.096" y="192.114" fill="#676767" width="4.15" height="6.943"/>
			<rect x="152.104" y="192.114" fill="#676767" width="4.151" height="6.943"/>
		</g>
	</g>
	<g>
		<g>
			<rect x="431.729" y="117.336" fill="#676767" width="4.15" height="6.944"/>
			<rect x="426.678" y="117.336" fill="#676767" width="4.15" height="6.944"/>
			<rect x="421.67" y="117.336" fill="#676767" width="4.149" height="6.944"/>
			<rect x="431.793" y="125.007" fill="#676767" width="4.15" height="6.945"/>
			<rect x="426.742" y="125.007" fill="#676767" width="4.149" height="6.945"/>
			<rect x="421.67" y="125.007" fill="#676767" width="4.149" height="6.945"/>
			<rect x="431.794" y="132.689" fill="#676767" width="4.15" height="6.943"/>
			<rect x="426.742" y="132.689" fill="#676767" width="4.151" height="6.943"/>
			<rect x="421.67" y="132.689" fill="#676767" width="4.149" height="6.943"/>
			<rect x="431.729" y="140.356" fill="#676767" width="4.15" height="6.943"/>
			<rect x="426.678" y="140.356" fill="#676767" width="4.15" height="6.943"/>
			<rect x="421.67" y="140.356" fill="#676767" width="4.149" height="6.943"/>
		</g>
		<g>
			<rect x="397.32" y="116.969" fill="#676767" width="4.15" height="6.943"/>
			<rect x="392.27" y="116.969" fill="#676767" width="4.149" height="6.943"/>
			<rect x="387.261" y="116.969" fill="#676767" width="4.15" height="6.943"/>
			<rect x="397.384" y="124.641" fill="#676767" width="4.15" height="6.943"/>
			<rect x="392.334" y="124.641" fill="#676767" width="4.149" height="6.943"/>
			<rect x="387.261" y="124.641" fill="#676767" width="4.15" height="6.943"/>
			<rect x="397.385" y="132.323" fill="#676767" width="4.15" height="6.943"/>
			<rect x="392.335" y="132.323" fill="#676767" width="4.149" height="6.943"/>
			<rect x="387.261" y="132.323" fill="#676767" width="4.15" height="6.943"/>
			<rect x="397.32" y="139.99" fill="#676767" width="4.15" height="6.943"/>
			<rect x="392.27" y="139.99" fill="#676767" width="4.149" height="6.943"/>
			<rect x="387.261" y="139.99" fill="#676767" width="4.15" height="6.943"/>
		</g>
		<g>
			<rect x="363.99" y="117.341" fill="#676767" width="4.15" height="6.944"/>
			<rect x="358.939" y="117.341" fill="#676767" width="4.15" height="6.944"/>
			<rect x="353.932" y="117.341" fill="#676767" width="4.148" height="6.944"/>
			<rect x="364.055" y="125.012" fill="#676767" width="4.15" height="6.943"/>
			<rect x="359.003" y="125.012" fill="#676767" width="4.15" height="6.943"/>
			<rect x="353.932" y="125.012" fill="#676767" width="4.148" height="6.943"/>
			<rect x="364.056" y="132.694" fill="#676767" width="4.15" height="6.943"/>
			<rect x="359.004" y="132.694" fill="#676767" width="4.15" height="6.943"/>
			<rect x="353.932" y="132.694" fill="#676767" width="4.148" height="6.943"/>
			<rect x="363.99" y="140.361" fill="#676767" width="4.15" height="6.943"/>
			<rect x="358.939" y="140.361" fill="#676767" width="4.15" height="6.943"/>
			<rect x="353.932" y="140.361" fill="#676767" width="4.148" height="6.943"/>
		</g>
		<g>
			<rect x="331.414" y="116.603" fill="#676767" width="4.15" height="6.943"/>
			<rect x="326.364" y="116.603" fill="#676767" width="4.15" height="6.943"/>
			<rect x="321.355" y="116.603" fill="#676767" width="4.15" height="6.943"/>
			<rect x="331.479" y="124.274" fill="#676767" width="4.149" height="6.943"/>
			<rect x="326.428" y="124.274" fill="#676767" width="4.151" height="6.943"/>
			<rect x="321.355" y="124.274" fill="#676767" width="4.15" height="6.943"/>
			<rect x="331.48" y="131.955" fill="#676767" width="4.149" height="6.944"/>
			<rect x="326.43" y="131.955" fill="#676767" width="4.15" height="6.944"/>
			<rect x="321.355" y="131.955" fill="#676767" width="4.15" height="6.944"/>
			<rect x="331.414" y="139.622" fill="#676767" width="4.15" height="6.944"/>
			<rect x="326.364" y="139.622" fill="#676767" width="4.15" height="6.944"/>
			<rect x="321.355" y="139.622" fill="#676767" width="4.15" height="6.944"/>
		</g>
		<g>
			<rect x="430.716" y="169.722" fill="#676767" width="4.15" height="6.943"/>
			<rect x="425.666" y="169.722" fill="#676767" width="4.15" height="6.943"/>
			<rect x="420.656" y="169.722" fill="#676767" width="4.151" height="6.943"/>
			<rect x="430.78" y="177.393" fill="#676767" width="4.15" height="6.943"/>
			<rect x="425.729" y="177.393" fill="#676767" width="4.15" height="6.943"/>
			<rect x="420.656" y="177.393" fill="#676767" width="4.151" height="6.943"/>
			<rect x="430.782" y="185.075" fill="#676767" width="4.149" height="6.943"/>
			<rect x="425.73" y="185.075" fill="#676767" width="4.151" height="6.943"/>
			<rect x="420.656" y="185.075" fill="#676767" width="4.151" height="6.943"/>
			<rect x="430.716" y="192.742" fill="#676767" width="4.15" height="6.943"/>
			<rect x="425.666" y="192.742" fill="#676767" width="4.15" height="6.943"/>
			<rect x="420.656" y="192.742" fill="#676767" width="4.151" height="6.943"/>
		</g>
		<g>
			<rect x="396.309" y="169.354" fill="#676767" width="4.149" height="6.943"/>
			<rect x="391.257" y="169.354" fill="#676767" width="4.15" height="6.943"/>
			<rect x="386.248" y="169.354" fill="#676767" width="4.15" height="6.943"/>
			<rect x="396.372" y="177.026" fill="#676767" width="4.15" height="6.943"/>
			<rect x="391.321" y="177.026" fill="#676767" width="4.15" height="6.943"/>
			<rect x="386.248" y="177.026" fill="#676767" width="4.15" height="6.943"/>
			<rect x="396.373" y="184.708" fill="#676767" width="4.149" height="6.942"/>
			<rect x="391.322" y="184.708" fill="#676767" width="4.15" height="6.942"/>
			<rect x="386.248" y="184.708" fill="#676767" width="4.15" height="6.942"/>
			<rect x="396.309" y="192.374" fill="#676767" width="4.149" height="6.943"/>
			<rect x="391.257" y="192.374" fill="#676767" width="4.15" height="6.943"/>
			<rect x="386.248" y="192.374" fill="#676767" width="4.15" height="6.943"/>
		</g>
		<g>
			<rect x="362.978" y="169.727" fill="#676767" width="4.15" height="6.943"/>
			<rect x="357.928" y="169.727" fill="#676767" width="4.15" height="6.943"/>
			<rect x="352.918" y="169.727" fill="#676767" width="4.15" height="6.943"/>
			<rect x="363.041" y="177.397" fill="#676767" width="4.15" height="6.943"/>
			<rect x="357.991" y="177.397" fill="#676767" width="4.15" height="6.943"/>
			<rect x="352.918" y="177.397" fill="#676767" width="4.15" height="6.943"/>
			<rect x="363.043" y="185.079" fill="#676767" width="4.15" height="6.944"/>
			<rect x="357.992" y="185.079" fill="#676767" width="4.15" height="6.944"/>
			<rect x="352.918" y="185.079" fill="#676767" width="4.15" height="6.944"/>
			<rect x="362.978" y="192.746" fill="#676767" width="4.15" height="6.944"/>
			<rect x="357.928" y="192.746" fill="#676767" width="4.15" height="6.944"/>
			<rect x="352.918" y="192.746" fill="#676767" width="4.15" height="6.944"/>
		</g>
		<g>
			<rect x="330.402" y="168.988" fill="#676767" width="4.15" height="6.943"/>
			<rect x="325.353" y="168.988" fill="#676767" width="4.149" height="6.943"/>
			<rect x="320.344" y="168.988" fill="#676767" width="4.15" height="6.943"/>
			<rect x="330.467" y="176.658" fill="#676767" width="4.15" height="6.945"/>
			<rect x="325.416" y="176.658" fill="#676767" width="4.149" height="6.945"/>
			<rect x="320.344" y="176.658" fill="#676767" width="4.15" height="6.945"/>
			<rect x="330.468" y="184.341" fill="#676767" width="4.15" height="6.943"/>
			<rect x="325.418" y="184.341" fill="#676767" width="4.149" height="6.943"/>
			<rect x="320.344" y="184.341" fill="#676767" width="4.15" height="6.943"/>
			<rect x="330.402" y="192.008" fill="#676767" width="4.15" height="6.943"/>
			<rect x="325.353" y="192.008" fill="#676767" width="4.149" height="6.943"/>
			<rect x="320.344" y="192.008" fill="#676767" width="4.15" height="6.943"/>
		</g>
	</g>
	<g>
		<polygon fill="#D0D2D3" points="406.514,167.042 380.281,166.941 393.829,159.656 		"/>
		<path fill="#D0D2D3" d="M427.807,159.656c-6.059,0-10.914,4.337-10.914,7.386h21.938
			C438.831,163.993,433.867,159.656,427.807,159.656z"/>
		<polygon fill="#D0D2D3" points="340.543,167.042 314.311,166.941 327.858,159.656 		"/>
		<path fill="#D0D2D3" d="M360.012,159.656c-6.058,0-10.914,4.337-10.914,7.386h21.939
			C371.037,163.993,366.073,159.656,360.012,159.656z"/>
		<polygon fill="#D0D2D3" points="69.65,167.042 95.881,166.941 82.333,159.656 		"/>
		<path fill="#D0D2D3" d="M48.355,159.656c6.059,0,10.914,4.337,10.914,7.386H37.331C37.331,163.993,42.295,159.656,48.355,159.656z
			"/>
		<polygon fill="#D0D2D3" points="135.619,167.042 161.852,166.941 148.304,159.656 		"/>
		<path fill="#D0D2D3" d="M116.15,159.656c6.058,0,10.914,4.337,10.914,7.386h-21.939
			C105.125,163.993,110.09,159.656,116.15,159.656z"/>
		<path fill="#D0D2D3" d="M189.938,160.114c-6.058,0-10.914,4.338-10.914,7.386h21.938
			C200.962,164.452,195.999,160.114,189.938,160.114z"/>
		<path fill="#D0D2D3" d="M287.496,161.311c-6.059,0-10.915,4.338-10.915,7.386h21.938
			C298.52,165.648,293.556,161.311,287.496,161.311z"/>
	</g>
</g>
</svg>
